<svg width="353" height="202" viewBox="0 0 353 202" fill="none" xmlns="http://www.w3.org/2000/svg">
<mask id="path-1-outside-1_1_100" maskUnits="userSpaceOnUse" x="0" y="0" width="353" height="202" fill="black">
<rect fill="white" width="353" height="202"/>
<path fill-rule="evenodd" clip-rule="evenodd" d="M220.418 85.8478L265.73 40.4463C273.754 32.4068 273.647 19.2548 265.618 11.2095C257.588 3.16427 244.462 3.05724 236.439 11.0967L191.127 56.4981C182.775 64.8664 169.234 64.8664 160.882 56.4981L115.57 11.0967C107.546 3.05724 94.42 3.16426 86.3905 11.2095C78.3611 19.2548 78.2543 32.4069 86.2779 40.4463L131.59 85.8478C139.942 94.2161 139.942 107.784 131.59 116.152L86.2779 161.554C78.2543 169.593 78.3611 182.745 86.3905 190.79C94.42 198.836 107.546 198.943 115.57 190.903L160.882 145.502C169.234 137.133 182.775 137.134 191.127 145.502L236.438 190.903C244.462 198.943 257.588 198.836 265.618 190.79C273.647 182.745 273.754 169.593 265.73 161.554L220.418 116.152C212.066 107.784 212.066 94.2161 220.418 85.8478ZM265.912 10.9144C257.723 2.70908 244.333 2.59624 236.144 10.8016L190.832 56.203C182.643 64.4083 169.365 64.4083 161.176 56.203L115.864 10.8016C107.675 2.59624 94.2852 2.70907 86.096 10.9144C77.9068 19.1198 77.7942 32.5361 85.9834 40.7414L131.295 86.1429C139.485 94.3482 139.485 107.652 131.295 115.857L85.9834 161.258C77.7942 169.464 77.9068 182.88 86.096 191.086C94.2852 199.291 107.675 199.404 115.864 191.198L161.176 145.797C169.365 137.592 182.643 137.592 190.832 145.797L236.144 191.198C244.333 199.404 257.723 199.291 265.912 191.086C274.101 182.88 274.214 169.464 266.025 161.259L220.713 115.857C212.524 107.652 212.524 94.3482 220.713 86.1429L266.025 40.7414C274.214 32.5361 274.101 19.1198 265.912 10.9144Z"/>
<path fill-rule="evenodd" clip-rule="evenodd" d="M112.169 3.61037C102.877 -1.01514 91.2669 0.494608 83.521 8.23505L8.2397 83.464C-0.808109 92.5055 -1.34603 106.81 6.46146 116.542C7.03207 117.256 7.64733 117.944 8.30693 118.603L83.521 193.765C88.3554 198.596 94.695 201 101.037 201C104.864 201.009 108.692 200.14 112.184 198.382C114.527 197.214 116.721 195.656 118.669 193.709C119.069 193.31 119.452 192.9 119.819 192.481L163.801 148.412C170.542 141.658 181.466 141.658 188.207 148.412L233.519 193.814C243.183 203.496 258.925 203.331 268.537 193.701C278.143 184.076 278.307 168.32 268.649 158.643L223.337 113.242C216.591 106.482 216.591 95.518 223.337 88.7582L268.649 43.3568C278.307 33.6802 278.143 17.9243 268.537 8.29914C258.925 -1.33141 243.183 -1.49607 233.519 8.1863L188.207 53.5877C181.466 60.3419 170.542 60.3419 163.801 53.5877L119.82 9.51969C119.452 9.10022 119.069 8.69028 118.669 8.29072C116.717 6.33986 114.517 4.77922 112.169 3.61037ZM263.106 37.831L217.794 83.2325C207.999 93.0464 207.999 108.954 217.794 118.768L263.106 164.169C269.661 170.737 269.605 181.55 262.993 188.175C256.386 194.795 245.613 194.851 239.063 188.288L193.751 142.887C183.951 133.067 168.057 133.067 158.257 142.887L125.951 175.256C125.749 169.2 123.347 163.206 118.725 158.586L106.583 146.453L134.214 118.768C144.009 108.954 144.009 93.0464 134.214 83.2325L106.583 55.5468L118.725 43.4136C123.347 38.7944 125.749 32.8001 125.951 26.7436L158.257 59.1134C168.057 68.933 183.951 68.933 193.751 59.1134L239.063 13.712C245.613 7.14946 256.386 7.20498 262.993 13.8249C269.605 20.4502 269.661 31.2626 263.106 37.831ZM108.015 10.3031C109.807 11.1093 111.481 12.2454 112.945 13.712L114.065 14.834C119.764 21.5192 119.479 31.593 113.187 37.8812L101.053 50.0059L88.9024 37.831C82.3469 31.2626 82.4027 20.4502 89.015 13.8249C92.3387 10.4947 96.7168 8.8257 101.081 8.82482C103.447 8.83 105.813 9.32295 108.015 10.3031ZM125.485 21.0318L160.881 56.4973L160.882 56.4981C169.234 64.8664 182.775 64.8664 191.127 56.4981L191.127 56.4973L236.439 11.0967L236.439 11.0959C244.463 3.05755 257.588 3.16456 265.617 11.2088L265.618 11.2095C273.647 19.2548 273.754 32.4068 265.73 40.4463L265.729 40.4471L220.418 85.8478L220.417 85.8486C212.067 94.2167 212.067 107.783 220.417 116.151L220.418 116.152L265.729 161.553L265.73 161.554C273.754 169.593 273.647 182.745 265.618 190.79L265.617 190.791C257.588 198.835 244.463 198.942 236.439 190.904L236.438 190.903L191.127 145.503L191.127 145.502C182.775 137.134 169.234 137.133 160.882 145.502L160.881 145.503L125.485 180.968C125.435 181.22 125.381 181.47 125.324 181.72L161.176 145.797L161.177 145.796C169.366 137.592 182.642 137.592 190.831 145.796L190.832 145.797L236.143 191.198L236.144 191.198C244.333 199.404 257.723 199.291 265.912 191.086L265.913 191.085C274.101 182.88 274.214 169.464 266.026 161.259L266.025 161.259L220.714 115.858L220.713 115.857C212.524 107.652 212.524 94.3482 220.713 86.1429L220.714 86.1421L266.025 40.7414L266.026 40.7406C274.214 32.5355 274.101 19.1204 265.913 10.9153L265.912 10.9144C257.723 2.70908 244.333 2.59624 236.144 10.8016L190.832 56.203L190.831 56.2038C182.642 64.4081 169.366 64.4081 161.177 56.2038L161.176 56.203L125.324 20.2798C125.381 20.5298 125.435 20.7805 125.485 21.0318ZM80.148 22.6727L80.6557 22.1653C79.4793 28.6068 81.3372 35.4958 86.2779 40.4463L86.2787 40.4472L98.4325 52.625L98.1375 52.9197L85.9834 40.7414L85.9825 40.7406C81.0894 35.8373 79.1605 29.0734 80.148 22.6727ZM76.1998 26.6181L13.7781 88.9964C7.61018 95.16 7.21144 104.967 12.5737 111.65L12.574 111.65L12.5745 111.651L12.5787 111.656C12.9689 112.144 13.391 112.617 13.8453 113.071L76.1998 175.382C76.3627 169.302 78.7352 163.276 83.3587 158.643L95.5167 146.461L67.8646 118.828C58.0113 108.982 58.0113 93.018 67.8646 83.1715L95.5167 55.5387L83.3588 43.3568C78.7352 38.724 76.3627 32.6979 76.1998 26.6181ZM103.668 143.539L131.295 115.858L131.295 115.857C139.485 107.652 139.485 94.3482 131.295 86.1429L131.295 86.1421L103.667 58.4605L103.962 58.1658L131.59 85.8478L131.591 85.8486C139.941 94.2167 139.941 107.783 131.591 116.151L131.59 116.152L103.962 143.834L103.668 143.539ZM98.1376 149.08L85.9834 161.258L85.9825 161.259C81.0894 166.163 79.1605 172.926 80.1479 179.327L80.6557 179.835C79.4793 173.393 81.3372 166.504 86.2779 161.554L86.2786 161.553L98.4325 149.375L98.1376 149.08ZM101.053 151.994L88.9024 164.169C82.3469 170.737 82.4027 181.55 89.015 188.175C94.1495 193.32 101.801 194.5 108.03 191.69C109.816 190.884 111.486 189.75 112.945 188.288L114.064 187.166C119.764 180.481 119.479 170.407 113.187 164.119L101.053 151.994ZM101.047 140.92L73.403 113.296C66.6074 106.505 66.6074 95.4948 73.403 88.704L101.047 61.0795L128.671 88.7582C135.417 95.518 135.417 106.482 128.671 113.242L101.047 140.92Z"/>
<path fill-rule="evenodd" clip-rule="evenodd" d="M251.099 1.00321C244.592 0.899109 238.05 3.32924 233.084 8.29145L82.9585 158.3C73.2357 168.016 73.2263 183.765 82.9464 193.477C92.6665 203.19 108.428 203.181 118.151 193.465L251.066 60.6544L279.135 88.704C285.93 95.4948 285.93 106.505 279.135 113.296L233.813 158.586C224.11 168.283 224.191 184.038 233.868 193.709C243.546 203.38 259.313 203.461 269.017 193.765L344.231 118.603C344.89 117.944 345.506 117.256 346.076 116.542C353.884 106.81 353.346 92.5055 344.298 83.464L269.017 8.23505C264.08 3.30207 257.574 0.899688 251.099 1.00321ZM339.963 111.651L339.959 111.656C339.569 112.144 339.147 112.617 338.692 113.071L263.478 188.232C256.86 194.846 246.053 194.818 239.407 188.177C232.76 181.535 232.733 170.733 239.351 164.119L284.673 118.828C294.526 108.982 294.526 93.018 284.673 83.1715L256.603 55.1212L268.277 43.4565C273.141 38.5958 275.574 32.2247 275.574 25.8548L338.76 88.9964C344.927 95.16 345.326 104.967 339.964 111.65L339.964 111.65L339.963 111.651ZM226.573 25.8657L88.4967 163.834C81.8286 170.497 81.8273 181.291 88.4848 187.943C95.1423 194.596 105.945 194.594 112.613 187.932L245.528 55.1203L233.813 43.4136C228.967 38.5713 226.562 32.2178 226.573 25.8657ZM251.065 49.5871L239.351 37.8812C232.733 31.2673 232.76 20.4651 239.407 13.8232C242.631 10.6012 246.835 8.9358 251.064 8.83016C255.305 8.92088 259.517 10.5823 262.751 13.8135C269.408 20.4658 269.407 31.2598 262.739 37.9227L251.065 49.5871Z"/>
</mask>
<path fill-rule="evenodd" clip-rule="evenodd" d="M220.418 85.8478L265.73 40.4463C273.754 32.4068 273.647 19.2548 265.618 11.2095C257.588 3.16427 244.462 3.05724 236.439 11.0967L191.127 56.4981C182.775 64.8664 169.234 64.8664 160.882 56.4981L115.57 11.0967C107.546 3.05724 94.42 3.16426 86.3905 11.2095C78.3611 19.2548 78.2543 32.4069 86.2779 40.4463L131.59 85.8478C139.942 94.2161 139.942 107.784 131.59 116.152L86.2779 161.554C78.2543 169.593 78.3611 182.745 86.3905 190.79C94.42 198.836 107.546 198.943 115.57 190.903L160.882 145.502C169.234 137.133 182.775 137.134 191.127 145.502L236.438 190.903C244.462 198.943 257.588 198.836 265.618 190.79C273.647 182.745 273.754 169.593 265.73 161.554L220.418 116.152C212.066 107.784 212.066 94.2161 220.418 85.8478ZM265.912 10.9144C257.723 2.70908 244.333 2.59624 236.144 10.8016L190.832 56.203C182.643 64.4083 169.365 64.4083 161.176 56.203L115.864 10.8016C107.675 2.59624 94.2852 2.70907 86.096 10.9144C77.9068 19.1198 77.7942 32.5361 85.9834 40.7414L131.295 86.1429C139.485 94.3482 139.485 107.652 131.295 115.857L85.9834 161.258C77.7942 169.464 77.9068 182.88 86.096 191.086C94.2852 199.291 107.675 199.404 115.864 191.198L161.176 145.797C169.365 137.592 182.643 137.592 190.832 145.797L236.144 191.198C244.333 199.404 257.723 199.291 265.912 191.086C274.101 182.88 274.214 169.464 266.025 161.259L220.713 115.857C212.524 107.652 212.524 94.3482 220.713 86.1429L266.025 40.7414C274.214 32.5361 274.101 19.1198 265.912 10.9144Z" fill="url(#paint0_linear_1_100)"/>
<path fill-rule="evenodd" clip-rule="evenodd" d="M112.169 3.61037C102.877 -1.01514 91.2669 0.494608 83.521 8.23505L8.2397 83.464C-0.808109 92.5055 -1.34603 106.81 6.46146 116.542C7.03207 117.256 7.64733 117.944 8.30693 118.603L83.521 193.765C88.3554 198.596 94.695 201 101.037 201C104.864 201.009 108.692 200.14 112.184 198.382C114.527 197.214 116.721 195.656 118.669 193.709C119.069 193.31 119.452 192.9 119.819 192.481L163.801 148.412C170.542 141.658 181.466 141.658 188.207 148.412L233.519 193.814C243.183 203.496 258.925 203.331 268.537 193.701C278.143 184.076 278.307 168.32 268.649 158.643L223.337 113.242C216.591 106.482 216.591 95.518 223.337 88.7582L268.649 43.3568C278.307 33.6802 278.143 17.9243 268.537 8.29914C258.925 -1.33141 243.183 -1.49607 233.519 8.1863L188.207 53.5877C181.466 60.3419 170.542 60.3419 163.801 53.5877L119.82 9.51969C119.452 9.10022 119.069 8.69028 118.669 8.29072C116.717 6.33986 114.517 4.77922 112.169 3.61037ZM263.106 37.831L217.794 83.2325C207.999 93.0464 207.999 108.954 217.794 118.768L263.106 164.169C269.661 170.737 269.605 181.55 262.993 188.175C256.386 194.795 245.613 194.851 239.063 188.288L193.751 142.887C183.951 133.067 168.057 133.067 158.257 142.887L125.951 175.256C125.749 169.2 123.347 163.206 118.725 158.586L106.583 146.453L134.214 118.768C144.009 108.954 144.009 93.0464 134.214 83.2325L106.583 55.5468L118.725 43.4136C123.347 38.7944 125.749 32.8001 125.951 26.7436L158.257 59.1134C168.057 68.933 183.951 68.933 193.751 59.1134L239.063 13.712C245.613 7.14946 256.386 7.20498 262.993 13.8249C269.605 20.4502 269.661 31.2626 263.106 37.831ZM108.015 10.3031C109.807 11.1093 111.481 12.2454 112.945 13.712L114.065 14.834C119.764 21.5192 119.479 31.593 113.187 37.8812L101.053 50.0059L88.9024 37.831C82.3469 31.2626 82.4027 20.4502 89.015 13.8249C92.3387 10.4947 96.7168 8.8257 101.081 8.82482C103.447 8.83 105.813 9.32295 108.015 10.3031ZM125.485 21.0318L160.881 56.4973L160.882 56.4981C169.234 64.8664 182.775 64.8664 191.127 56.4981L191.127 56.4973L236.439 11.0967L236.439 11.0959C244.463 3.05755 257.588 3.16456 265.617 11.2088L265.618 11.2095C273.647 19.2548 273.754 32.4068 265.73 40.4463L265.729 40.4471L220.418 85.8478L220.417 85.8486C212.067 94.2167 212.067 107.783 220.417 116.151L220.418 116.152L265.729 161.553L265.73 161.554C273.754 169.593 273.647 182.745 265.618 190.79L265.617 190.791C257.588 198.835 244.463 198.942 236.439 190.904L236.438 190.903L191.127 145.503L191.127 145.502C182.775 137.134 169.234 137.133 160.882 145.502L160.881 145.503L125.485 180.968C125.435 181.22 125.381 181.47 125.324 181.72L161.176 145.797L161.177 145.796C169.366 137.592 182.642 137.592 190.831 145.796L190.832 145.797L236.143 191.198L236.144 191.198C244.333 199.404 257.723 199.291 265.912 191.086L265.913 191.085C274.101 182.88 274.214 169.464 266.026 161.259L266.025 161.259L220.714 115.858L220.713 115.857C212.524 107.652 212.524 94.3482 220.713 86.1429L220.714 86.1421L266.025 40.7414L266.026 40.7406C274.214 32.5355 274.101 19.1204 265.913 10.9153L265.912 10.9144C257.723 2.70908 244.333 2.59624 236.144 10.8016L190.832 56.203L190.831 56.2038C182.642 64.4081 169.366 64.4081 161.177 56.2038L161.176 56.203L125.324 20.2798C125.381 20.5298 125.435 20.7805 125.485 21.0318ZM80.148 22.6727L80.6557 22.1653C79.4793 28.6068 81.3372 35.4958 86.2779 40.4463L86.2787 40.4472L98.4325 52.625L98.1375 52.9197L85.9834 40.7414L85.9825 40.7406C81.0894 35.8373 79.1605 29.0734 80.148 22.6727ZM76.1998 26.6181L13.7781 88.9964C7.61018 95.16 7.21144 104.967 12.5737 111.65L12.574 111.65L12.5745 111.651L12.5787 111.656C12.9689 112.144 13.391 112.617 13.8453 113.071L76.1998 175.382C76.3627 169.302 78.7352 163.276 83.3587 158.643L95.5167 146.461L67.8646 118.828C58.0113 108.982 58.0113 93.018 67.8646 83.1715L95.5167 55.5387L83.3588 43.3568C78.7352 38.724 76.3627 32.6979 76.1998 26.6181ZM103.668 143.539L131.295 115.858L131.295 115.857C139.485 107.652 139.485 94.3482 131.295 86.1429L131.295 86.1421L103.667 58.4605L103.962 58.1658L131.59 85.8478L131.591 85.8486C139.941 94.2167 139.941 107.783 131.591 116.151L131.59 116.152L103.962 143.834L103.668 143.539ZM98.1376 149.08L85.9834 161.258L85.9825 161.259C81.0894 166.163 79.1605 172.926 80.1479 179.327L80.6557 179.835C79.4793 173.393 81.3372 166.504 86.2779 161.554L86.2786 161.553L98.4325 149.375L98.1376 149.08ZM101.053 151.994L88.9024 164.169C82.3469 170.737 82.4027 181.55 89.015 188.175C94.1495 193.32 101.801 194.5 108.03 191.69C109.816 190.884 111.486 189.75 112.945 188.288L114.064 187.166C119.764 180.481 119.479 170.407 113.187 164.119L101.053 151.994ZM101.047 140.92L73.403 113.296C66.6074 106.505 66.6074 95.4948 73.403 88.704L101.047 61.0795L128.671 88.7582C135.417 95.518 135.417 106.482 128.671 113.242L101.047 140.92Z" fill="url(#paint1_linear_1_100)"/>
<path fill-rule="evenodd" clip-rule="evenodd" d="M251.099 1.00321C244.592 0.899109 238.05 3.32924 233.084 8.29145L82.9585 158.3C73.2357 168.016 73.2263 183.765 82.9464 193.477C92.6665 203.19 108.428 203.181 118.151 193.465L251.066 60.6544L279.135 88.704C285.93 95.4948 285.93 106.505 279.135 113.296L233.813 158.586C224.11 168.283 224.191 184.038 233.868 193.709C243.546 203.38 259.313 203.461 269.017 193.765L344.231 118.603C344.89 117.944 345.506 117.256 346.076 116.542C353.884 106.81 353.346 92.5055 344.298 83.464L269.017 8.23505C264.08 3.30207 257.574 0.899688 251.099 1.00321ZM339.963 111.651L339.959 111.656C339.569 112.144 339.147 112.617 338.692 113.071L263.478 188.232C256.86 194.846 246.053 194.818 239.407 188.177C232.76 181.535 232.733 170.733 239.351 164.119L284.673 118.828C294.526 108.982 294.526 93.018 284.673 83.1715L256.603 55.1212L268.277 43.4565C273.141 38.5958 275.574 32.2247 275.574 25.8548L338.76 88.9964C344.927 95.16 345.326 104.967 339.964 111.65L339.964 111.65L339.963 111.651ZM226.573 25.8657L88.4967 163.834C81.8286 170.497 81.8273 181.291 88.4848 187.943C95.1423 194.596 105.945 194.594 112.613 187.932L245.528 55.1203L233.813 43.4136C228.967 38.5713 226.562 32.2178 226.573 25.8657ZM251.065 49.5871L239.351 37.8812C232.733 31.2673 232.76 20.4651 239.407 13.8232C242.631 10.6012 246.835 8.9358 251.064 8.83016C255.305 8.92088 259.517 10.5823 262.751 13.8135C269.408 20.4658 269.407 31.2598 262.739 37.9227L251.065 49.5871Z" fill="url(#paint2_linear_1_100)"/>
<path d="M236.144 10.8016L235.79 10.4484L236.144 10.8016ZM265.264 11.5627C273.102 19.4163 273.202 32.2523 265.376 40.0931L266.084 40.7995C274.306 32.5614 274.192 19.0933 265.972 10.8563L265.264 11.5627ZM160.528 56.8513C169.075 65.4154 182.933 65.4154 191.48 56.8513L190.773 56.1449C182.616 64.3175 169.392 64.3175 161.236 56.1449L160.528 56.8513ZM191.48 145.149C182.933 136.585 169.075 136.585 160.528 145.149L161.236 145.855C169.392 137.682 182.616 137.682 190.773 145.855L191.48 145.149ZM265.376 161.907C273.202 169.748 273.102 182.584 265.264 190.437L265.972 191.144C274.192 182.907 274.306 169.438 266.084 161.2L265.376 161.907ZM236.498 11.1548C244.488 3.14865 257.561 3.25451 265.558 11.2676L266.266 10.5612C257.885 2.16365 244.178 2.04382 235.79 10.4484L236.498 11.1548ZM191.186 56.5562L236.498 11.1548L235.79 10.4484L190.478 55.8498L191.186 56.5562ZM131.649 116.21C140.033 107.81 140.033 94.1902 131.649 85.7897L130.942 86.4961C138.936 94.5062 138.936 107.494 130.942 115.504L131.649 116.21ZM265.558 190.732C257.561 198.745 244.488 198.851 236.498 190.845L235.79 191.552C244.178 199.956 257.885 199.836 266.266 191.439L265.558 190.732ZM220.359 85.7897C211.975 94.1902 211.975 107.81 220.359 116.21L221.067 115.504C213.072 107.494 213.072 94.5062 221.067 86.4961L220.359 85.7897ZM265.73 40.4463L266.438 41.1527L265.047 39.7165L265.73 40.4463ZM220.418 85.8478L221.126 86.5542L220.418 85.8478ZM265.618 11.2095L264.965 11.967L266.326 10.5031L265.618 11.2095ZM191.127 56.4981L190.386 55.8259L191.834 57.2045L191.127 56.4981ZM160.882 56.4981L160.229 57.2559L161.59 55.7917L160.882 56.4981ZM115.57 11.0967L116.278 10.3903V10.3903L115.57 11.0967ZM86.3905 11.2095L85.6827 10.5031V10.5031L86.3905 11.2095ZM131.59 85.8477L132.298 85.1413L131.59 85.8477ZM131.59 116.152L132.298 116.859L131.59 116.152ZM86.3905 190.79L85.6827 191.497L86.3905 190.79ZM115.57 190.903L116.278 191.61L115.57 190.903ZM160.882 145.502L161.59 146.208L160.202 144.769L160.882 145.502ZM191.127 145.502L191.834 144.795L190.363 146.148L191.127 145.502ZM236.438 190.903L237.146 190.197L236.438 190.903ZM265.618 190.79L266.326 191.497L264.938 190.057L265.618 190.79ZM265.73 161.554L265.08 162.313L266.438 160.847L265.73 161.554ZM265.912 10.9144L266.62 10.208L265.148 11.5589L265.912 10.9144ZM190.832 56.203L191.54 56.9094L190.152 55.4699L190.832 56.203ZM161.176 56.203L161.884 55.4966L161.176 56.203ZM115.864 10.8016L116.572 10.0952L115.864 10.8016ZM86.096 10.9144L86.8038 11.6208L86.096 10.9144ZM85.9834 40.7414L86.6912 40.035L85.9834 40.7414ZM131.295 86.1429L130.644 86.9014L132.003 85.4365L131.295 86.1429ZM131.295 115.857L132.003 116.563L130.622 115.118L131.295 115.857ZM85.9834 161.258L86.6912 161.965L85.9834 161.258ZM115.864 191.198L115.157 190.492L115.864 191.198ZM161.176 145.797L161.884 146.503L161.176 145.797ZM236.144 191.198L235.487 191.952L236.852 190.492L236.144 191.198ZM265.912 191.086L265.183 190.401L266.62 191.792L265.912 191.086ZM266.025 161.258L266.733 160.552L266.025 161.258ZM220.713 115.857L221.421 115.151L219.95 116.503L220.713 115.857ZM220.713 86.1429L219.976 85.4669L221.421 86.8493L220.713 86.1429ZM266.025 40.7414L266.733 41.4478L266.025 40.7414ZM217.794 83.2325L218.501 83.9389L217.794 83.2325ZM263.106 37.831L262.398 37.1246L263.106 37.831ZM217.794 118.768L218.501 118.061L217.794 118.768ZM263.106 164.169L263.813 163.463L263.106 164.169ZM262.993 188.175L263.701 188.882L262.993 188.175ZM239.063 188.288L239.771 187.582L239.063 188.288ZM193.751 142.887L194.459 142.18L193.751 142.887ZM158.257 142.887L158.965 143.593L158.257 142.887ZM125.951 175.256L124.952 175.29L125.028 177.596L126.659 175.963L125.951 175.256ZM118.725 158.586L118.018 159.294L118.725 158.586ZM106.583 146.453L105.875 145.747L105.17 146.454L105.876 147.161L106.583 146.453ZM134.214 118.768L133.507 118.061L134.214 118.768ZM134.214 83.2325L133.507 83.9389L134.214 83.2325ZM106.583 55.5468L105.876 54.8394L105.169 55.5458L105.875 56.2532L106.583 55.5468ZM118.725 43.4136L119.432 44.1209L118.725 43.4136ZM125.951 26.7436L126.659 26.0371L125.028 24.4035L124.952 26.7103L125.951 26.7436ZM158.257 59.1134L157.549 59.8199L158.257 59.1134ZM193.751 59.1134L194.459 59.8198L193.751 59.1134ZM239.063 13.712L239.771 14.4184L239.063 13.712ZM262.993 13.8249L263.701 13.1185L262.993 13.8249ZM112.945 13.712L113.653 13.0056V13.0056L112.945 13.712ZM108.015 10.3031L108.425 9.39112L108.421 9.38959L108.015 10.3031ZM114.065 14.834L114.826 14.1852L114.8 14.1553L114.773 14.1275L114.065 14.834ZM113.187 37.8812L113.893 38.5885L113.187 37.8812ZM101.053 50.0059L100.346 50.7123L101.052 51.4206L101.76 50.7133L101.053 50.0059ZM88.9024 37.831L89.6102 37.1246L88.9024 37.831ZM89.015 13.8249L88.3072 13.1185V13.1185L89.015 13.8249ZM101.081 8.82482L101.083 7.82482L101.081 7.82482L101.081 8.82482ZM125.485 21.0318L124.504 21.2267L124.563 21.5238L124.777 21.7382L125.485 21.0318ZM160.881 56.4973L160.173 57.2037L160.2 57.2305L160.228 57.2552L160.881 56.4973ZM191.127 56.4973L190.419 55.7909L190.403 55.8076L190.387 55.8251L191.127 56.4973ZM236.439 11.0959L235.731 10.3895L235.716 10.4053L235.701 10.4218L236.439 11.0959ZM265.617 11.2088L264.909 11.9152L264.936 11.9417L264.964 11.9662L265.617 11.2088ZM265.729 40.4472L265.046 39.7173L265.034 39.7288L265.022 39.7407L265.729 40.4472ZM220.417 85.8486L219.737 85.1155L219.723 85.1286L219.71 85.1422L220.417 85.8486ZM220.417 116.151L219.71 116.858L219.737 116.885L219.767 116.911L220.417 116.151ZM265.729 161.553L265.022 162.259L265.049 162.287L265.079 162.312L265.729 161.553ZM265.617 190.791L264.937 190.058L264.923 190.071L264.909 190.085L265.617 190.791ZM236.439 190.904L235.676 191.55L235.703 191.582L235.731 191.611L236.439 190.904ZM191.127 145.503L190.364 146.149L190.391 146.18L190.419 146.209L191.127 145.503ZM160.881 145.503L160.201 144.77L160.187 144.783L160.173 144.796L160.881 145.503ZM125.485 180.968L124.777 180.262L124.563 180.476L124.504 180.773L125.485 180.968ZM125.324 181.72L124.349 181.495L123.563 184.9L126.032 182.427L125.324 181.72ZM161.177 145.796L160.469 145.09L160.454 145.105L160.44 145.12L161.177 145.796ZM190.831 145.796L190.123 146.503L190.151 146.53L190.181 146.556L190.831 145.796ZM236.143 191.198L235.435 191.904L235.46 191.928L235.486 191.951L236.143 191.198ZM265.913 191.085L265.205 190.378L265.194 190.389L265.184 190.401L265.913 191.085ZM266.026 161.259L265.262 161.906L265.289 161.937L265.318 161.966L266.026 161.259ZM220.714 115.858L219.95 116.504L219.977 116.535L220.006 116.564L220.714 115.858ZM220.714 86.1421L220.006 85.4357L219.991 85.4506L219.977 85.4661L220.714 86.1421ZM266.026 40.7406L265.318 40.0343L265.302 40.0501L265.287 40.0665L266.026 40.7406ZM265.913 10.9153L265.148 11.5597L265.175 11.5919L265.205 11.6216L265.913 10.9153ZM190.831 56.2038L190.151 55.4708L190.137 55.4838L190.123 55.4974L190.831 56.2038ZM161.177 56.2038L160.412 56.8483L160.439 56.8805L160.469 56.9103L161.177 56.2038ZM125.324 20.2798L126.032 19.5734L123.563 17.1004L124.349 20.5048L125.324 20.2798ZM80.148 22.6727L79.4411 21.9654L79.2096 22.1967L79.1597 22.5203L80.148 22.6727ZM80.6557 22.1653L81.6395 22.345L82.2151 19.1933L79.9489 21.458L80.6557 22.1653ZM86.2787 40.4472L85.5196 41.0982L85.5442 41.1269L85.5709 41.1536L86.2787 40.4472ZM98.4325 52.625L99.1393 53.3323L99.8462 52.6259L99.1403 51.9185L98.4325 52.625ZM98.1375 52.9197L97.4297 53.6261L98.1366 54.3343L98.8444 53.627L98.1375 52.9197ZM85.9825 40.7406L85.2746 41.447L85.3018 41.4742L85.3309 41.4992L85.9825 40.7406ZM13.7781 88.9964L14.4849 89.7038L13.7781 88.9964ZM76.1998 26.6181L77.1995 26.5913L77.1372 24.2676L75.493 25.9107L76.1998 26.6181ZM12.5737 111.65L13.3583 111.03L13.3536 111.024L12.5737 111.65ZM12.574 111.65L11.7893 112.27L11.7963 112.279L12.574 111.65ZM12.5745 111.651L13.3547 111.025L13.3522 111.022L12.5745 111.651ZM12.5787 111.656L13.3599 111.032L13.3589 111.03L12.5787 111.656ZM13.8453 113.071L14.5522 112.363L14.5522 112.363L13.8453 113.071ZM76.1998 175.382L75.493 176.089L77.1372 177.732L77.1995 175.409L76.1998 175.382ZM83.3587 158.643L82.6509 157.937L83.3587 158.643ZM95.5167 146.461L96.2245 147.168L96.9305 146.46L96.2236 145.754L95.5167 146.461ZM67.8646 118.828L67.1577 119.536H67.1578L67.8646 118.828ZM67.8646 83.1715L67.1578 82.4642L67.8646 83.1715ZM95.5167 55.5387L96.2236 56.2461L96.9305 55.5396L96.2245 54.8323L95.5167 55.5387ZM83.3587 43.3568L82.6509 44.0632L83.3587 43.3568ZM112.169 3.61037L112.615 2.71515V2.71515L112.169 3.61037ZM83.521 8.23505L84.2279 8.9424V8.9424L83.521 8.23505ZM8.2397 83.464L7.53284 82.7566L8.2397 83.464ZM6.46146 116.542L7.24251 115.917L7.24147 115.916L6.46146 116.542ZM8.30693 118.603L7.60006 119.31L7.60007 119.31L8.30693 118.603ZM83.521 193.765L82.8142 194.472L83.521 193.765ZM101.037 201L101.039 200H101.037L101.037 201ZM112.184 198.382L111.738 197.487L111.735 197.489L112.184 198.382ZM118.669 193.709L117.962 193.002L118.669 193.709ZM119.819 192.481L119.111 191.774L119.088 191.798L119.066 191.822L119.819 192.481ZM163.801 148.412L163.093 147.706L163.801 148.412ZM188.207 148.412L188.915 147.706L188.207 148.412ZM233.519 193.814L234.227 193.107L233.519 193.814ZM268.537 193.701L269.245 194.407L268.537 193.701ZM268.649 158.643L267.942 159.35L268.649 158.643ZM223.337 113.242L222.629 113.948L223.337 113.242ZM223.337 88.7582L222.629 88.0518L223.337 88.7582ZM268.649 43.3568L267.942 42.6504L268.649 43.3568ZM268.537 8.29914L269.245 7.59273V7.59273L268.537 8.29914ZM233.519 8.1863L234.227 8.89271L233.519 8.1863ZM188.207 53.5877L188.915 54.2941L188.207 53.5877ZM163.801 53.5877L163.093 54.2941L163.801 53.5877ZM119.82 9.51969L119.067 10.1782L119.089 10.2029L119.112 10.2261L119.82 9.51969ZM118.669 8.29072L117.962 8.99808V8.99808L118.669 8.29072ZM103.668 143.539L102.96 142.833L102.254 143.54L102.961 144.247L103.668 143.539ZM131.295 115.858L130.621 115.119L130.603 115.135L130.587 115.151L131.295 115.858ZM131.295 86.1421L130.587 86.8485L130.614 86.8756L130.643 86.9006L131.295 86.1421ZM103.667 58.4605L102.961 57.7532L102.254 58.4596L102.96 59.1669L103.667 58.4605ZM103.962 58.1658L104.67 57.4594L103.963 56.7511L103.256 57.4584L103.962 58.1658ZM131.591 85.8486L130.828 86.4948L130.854 86.526L130.883 86.555L131.591 85.8486ZM131.591 116.151L130.883 115.445L130.864 115.464L130.847 115.483L131.591 116.151ZM103.962 143.834L103.256 144.541L103.963 145.249L104.67 144.541L103.962 143.834ZM98.1376 149.08L98.8444 148.373L98.1366 147.666L97.4298 148.374L98.1376 149.08ZM85.9825 161.259L85.3094 160.52L85.2916 160.536L85.2747 160.553L85.9825 161.259ZM80.1479 179.327L79.1596 179.48L79.2095 179.803L79.4411 180.035L80.1479 179.327ZM80.6557 179.835L79.9488 180.542L82.215 182.807L81.6394 179.655L80.6557 179.835ZM86.2786 161.553L85.5708 160.846L85.5523 160.865L85.5348 160.884L86.2786 161.553ZM98.4325 149.375L99.1403 150.081L99.8463 149.374L99.1394 148.668L98.4325 149.375ZM101.053 151.994L101.76 151.287L101.052 150.579L100.346 151.288L101.053 151.994ZM88.9024 164.169L88.1946 163.462V163.463L88.9024 164.169ZM89.015 188.175L89.7228 187.469L89.015 188.175ZM108.03 191.69L107.619 190.778H107.619L108.03 191.69ZM112.945 188.288L113.653 188.994L112.945 188.288ZM114.064 187.166L114.772 187.873L114.8 187.845L114.825 187.815L114.064 187.166ZM113.187 164.119L112.48 164.826L113.187 164.119ZM101.047 140.92L100.34 141.628L101.048 142.335L101.754 141.627L101.047 140.92ZM73.403 113.296L74.1098 112.589V112.589L73.403 113.296ZM73.403 88.704L72.6961 87.9966L73.403 88.704ZM101.047 61.0795L101.754 60.3731L101.048 59.6649L100.34 60.3722L101.047 61.0795ZM128.671 88.7582L129.379 88.0518L128.671 88.7582ZM128.671 113.242L129.379 113.948L128.671 113.242ZM339.959 111.656L339.179 111.03L339.178 111.032L339.959 111.656ZM339.963 111.651L339.19 111.016L339.183 111.025L339.963 111.651ZM338.692 113.071L339.399 113.778L338.692 113.071ZM263.478 188.232L262.771 187.525L263.478 188.232ZM239.407 188.177L238.7 188.884L239.407 188.177ZM239.351 164.119L238.644 163.411L239.351 164.119ZM284.673 118.828L283.966 118.121L284.673 118.828ZM284.673 83.1715L285.38 82.4642L284.673 83.1715ZM256.603 55.1212L255.896 54.4138L255.188 55.1211L255.896 55.8285L256.603 55.1212ZM268.277 43.4565L268.984 44.1639L268.277 43.4565ZM275.574 25.8548L276.281 25.1475L274.574 23.4417L274.574 25.8549L275.574 25.8548ZM338.76 88.9964L338.053 89.7038L338.76 88.9964ZM339.964 111.65L339.184 111.024L339.178 111.031L339.173 111.038L339.964 111.65ZM339.964 111.65L340.736 112.285L340.746 112.273L340.755 112.261L339.964 111.65ZM88.4967 163.834L89.2035 164.542L88.4967 163.834ZM226.573 25.8657L227.573 25.8674L227.577 23.4485L225.866 25.1583L226.573 25.8657ZM88.4848 187.943L87.778 188.651L88.4848 187.943ZM112.613 187.932L113.32 188.639L112.613 187.932ZM245.528 55.1203L246.234 55.8277L246.942 55.1203L246.234 54.413L245.528 55.1203ZM233.813 43.4136L233.106 44.1209L233.813 43.4136ZM251.099 1.00321L251.083 2.00308L251.099 2.00333L251.115 2.00308L251.099 1.00321ZM233.084 8.29145L233.791 8.99884V8.99883L233.084 8.29145ZM82.9585 158.3L82.2516 157.593H82.2516L82.9585 158.3ZM82.9464 193.477L82.2396 194.185L82.9464 193.477ZM118.151 193.465L117.444 192.758L118.151 193.465ZM251.066 60.6544L251.772 59.9471L251.066 59.2407L250.359 59.947L251.066 60.6544ZM279.135 88.704L279.842 87.9966L279.135 88.704ZM279.135 113.296L278.428 112.589L279.135 113.296ZM233.813 158.586L234.52 159.294L233.813 158.586ZM233.868 193.709L233.162 194.417L233.868 193.709ZM269.017 193.765L268.31 193.058L269.017 193.765ZM344.231 118.603L344.938 119.31V119.31L344.231 118.603ZM346.076 116.542L345.296 115.916L345.295 115.917L346.076 116.542ZM344.298 83.464L345.005 82.7566L344.298 83.464ZM269.017 8.23504L268.31 8.9424V8.9424L269.017 8.23504ZM239.351 37.8812L238.644 38.5885L239.351 37.8812ZM251.065 49.5871L250.358 50.2944L251.065 51.0008L251.772 50.2945L251.065 49.5871ZM239.407 13.8232L240.114 14.5305V14.5305L239.407 13.8232ZM251.064 8.83016L251.086 7.83039L251.063 7.82989L251.039 7.83047L251.064 8.83016ZM262.751 13.8135L262.044 14.5209L262.751 13.8135ZM262.739 37.9227L262.032 37.2153L262.739 37.9227ZM265.023 39.7399L219.71 85.1413L221.126 86.5542L266.438 41.1527L265.023 39.7399ZM237.146 11.8031C244.772 4.16203 257.264 4.25517 264.91 11.9159L266.326 10.5031C257.912 2.07337 244.152 1.95245 235.731 10.3903L237.146 11.8031ZM191.834 57.2045L237.146 11.8031L235.731 10.3903L190.419 55.7917L191.834 57.2045ZM114.862 11.8031L160.174 57.2045L161.59 55.7917L116.278 10.3903L114.862 11.8031ZM87.0983 11.9159C94.744 4.25517 107.236 4.16203 114.862 11.8031L116.278 10.3903C107.856 1.95245 94.0959 2.07336 85.6827 10.5031L87.0983 11.9159ZM86.9857 39.7399C79.3586 32.0977 79.4516 19.5778 87.0983 11.9159L85.6827 10.5031C77.2706 18.9318 77.15 32.716 85.5701 41.1527L86.9857 39.7399ZM132.298 85.1413L86.9857 39.7399L85.5701 41.1527L130.882 86.5542L132.298 85.1413ZM132.298 116.859C141.039 108.1 141.039 93.9 132.298 85.1413L130.882 86.5542C138.844 94.5321 138.844 107.468 130.882 115.446L132.298 116.859ZM86.9857 162.26L132.298 116.859L130.882 115.446L85.5701 160.847L86.9857 162.26ZM87.0983 190.084C79.4516 182.422 79.3586 169.902 86.9857 162.26L85.5701 160.847C77.15 169.284 77.2706 183.068 85.6827 191.497L87.0983 190.084ZM114.862 190.197C107.236 197.838 94.744 197.745 87.0983 190.084L85.6827 191.497C94.0959 199.927 107.856 200.047 116.278 191.61L114.862 190.197ZM160.174 144.795L114.862 190.197L116.278 191.61L161.59 146.208L160.174 144.795ZM237.146 190.197L191.834 144.795L190.419 146.208L235.731 191.61L237.146 190.197ZM264.91 190.084C257.264 197.745 244.772 197.838 237.146 190.197L235.731 191.61C244.152 200.047 257.912 199.927 266.326 191.497L264.91 190.084ZM219.71 116.859L265.023 162.26L266.438 160.847L221.126 115.446L219.71 116.859ZM219.71 85.1413C210.969 93.9 210.969 108.1 219.71 116.859L221.126 115.446C213.164 107.468 213.164 94.5321 221.126 86.5542L219.71 85.1413ZM160.469 56.9094C169.048 65.5062 182.96 65.5062 191.54 56.9094L190.124 55.4966C182.326 63.3105 169.683 63.3105 161.884 55.4966L160.469 56.9094ZM115.157 11.508L160.469 56.9094L161.884 55.4966L116.572 10.0952L115.157 11.508ZM86.8038 11.6208C94.6093 3.79993 107.365 3.70107 115.157 11.508L116.572 10.0952C107.985 1.49141 93.9611 1.61821 85.3882 10.208L86.8038 11.6208ZM86.6912 40.035C78.8985 32.227 78.9973 19.4428 86.8038 11.6208L85.3882 10.208C76.8164 18.7967 76.6899 32.8452 85.2756 41.4478L86.6912 40.035ZM132.003 85.4365L86.6912 40.035L85.2756 41.4478L130.588 86.8493L132.003 85.4365ZM86.6912 161.965L132.003 116.563L130.588 115.151L85.2756 160.552L86.6912 161.965ZM86.8038 190.379C78.9973 182.557 78.8985 169.773 86.6912 161.965L85.2756 160.552C76.6899 169.155 76.8164 183.203 85.3882 191.792L86.8038 190.379ZM115.157 190.492C107.365 198.299 94.6093 198.2 86.8038 190.379L85.3882 191.792C93.9611 200.382 107.985 200.509 116.572 191.905L115.157 190.492ZM160.469 145.091L115.157 190.492L116.572 191.905L161.884 146.503L160.469 145.091ZM191.54 145.091C182.96 136.494 169.048 136.494 160.469 145.091L161.884 146.503C169.683 138.689 182.326 138.689 190.124 146.503L191.54 145.091ZM236.852 190.492L191.54 145.091L190.124 146.503L235.436 191.905L236.852 190.492ZM265.317 161.965C273.11 169.773 273.011 182.557 265.204 190.379L266.62 191.792C275.192 183.203 275.318 169.155 266.733 160.552L265.317 161.965ZM220.005 116.563L265.317 161.965L266.733 160.552L221.421 115.151L220.005 116.563ZM265.317 40.035L220.005 85.4365L221.421 86.8493L266.733 41.4478L265.317 40.035ZM265.204 11.6208C273.011 19.4428 273.11 32.227 265.317 40.035L266.733 41.4478C275.318 32.8452 275.192 18.7968 266.62 10.208L265.204 11.6208ZM218.501 83.9389L263.814 38.5374L262.398 37.1246L217.086 82.5261L218.501 83.9389ZM218.501 118.061C209.096 108.638 209.096 93.3624 218.501 83.9389L217.086 82.5261C206.902 92.7303 206.902 109.27 217.086 119.474L218.501 118.061ZM263.813 163.463L218.501 118.061L217.086 119.474L262.398 164.875L263.813 163.463ZM263.701 188.882C270.696 181.872 270.765 170.428 263.813 163.463L262.398 164.875C268.557 171.047 268.514 181.227 262.285 187.469L263.701 188.882ZM238.355 188.994C245.302 195.955 256.71 195.886 263.701 188.882L262.285 187.469C256.063 193.704 245.923 193.746 239.771 187.582L238.355 188.994ZM193.043 143.593L238.355 188.994L239.771 187.582L194.459 142.18L193.043 143.593ZM158.965 143.593C168.374 134.165 183.634 134.165 193.043 143.593L194.459 142.18C184.268 131.969 167.74 131.969 157.549 142.18L158.965 143.593ZM126.659 175.963L158.965 143.593L157.549 142.18L125.243 174.55L126.659 175.963ZM126.95 175.223C126.741 168.924 124.242 162.685 119.432 157.879L118.018 159.294C122.453 163.726 124.758 169.476 124.952 175.29L126.95 175.223ZM119.432 157.879L107.29 145.746L105.876 147.161L118.018 159.294L119.432 157.879ZM133.507 118.061L105.875 145.747L107.291 147.16L134.922 119.474L133.507 118.061ZM133.507 83.9389C142.912 93.3624 142.912 108.638 133.507 118.061L134.922 119.474C145.106 109.27 145.106 92.7303 134.922 82.5261L133.507 83.9389ZM105.875 56.2532L133.507 83.9389L134.922 82.5261L107.291 54.8404L105.875 56.2532ZM107.29 56.2541L119.432 44.1209L118.018 42.7062L105.876 54.8394L107.29 56.2541ZM119.432 44.1209C124.242 39.3145 126.741 33.0757 126.95 26.7768L124.952 26.7103C124.758 32.5244 122.453 38.2743 118.018 42.7062L119.432 44.1209ZM158.965 58.407L126.659 26.0371L125.243 27.45L157.549 59.8199L158.965 58.407ZM193.043 58.407C183.634 67.8351 168.374 67.8351 158.965 58.407L157.549 59.8199C167.74 70.0308 184.268 70.0308 194.459 59.8198L193.043 58.407ZM238.355 13.0056L193.043 58.407L194.459 59.8198L239.771 14.4184L238.355 13.0056ZM263.701 13.1185C256.71 6.11361 245.302 6.04513 238.355 13.0056L239.771 14.4184C245.923 8.25379 256.063 8.29634 262.285 14.5313L263.701 13.1185ZM263.814 38.5374C270.765 31.5722 270.696 20.1277 263.701 13.1185L262.285 14.5313C268.514 20.7727 268.557 30.953 262.398 37.1246L263.814 38.5374ZM113.653 13.0056C112.102 11.4511 110.325 10.2461 108.425 9.39113L107.604 11.2151C109.288 11.9724 110.861 13.0396 112.237 14.4185L113.653 13.0056ZM114.773 14.1275L113.653 13.0056L112.237 14.4184L113.357 15.5404L114.773 14.1275ZM113.304 15.4827C118.67 21.7776 118.397 31.2605 112.48 37.1738L113.893 38.5885C120.561 31.9255 120.858 21.2607 114.826 14.1852L113.304 15.4827ZM112.48 37.1738L100.346 49.2986L101.76 50.7133L113.893 38.5885L112.48 37.1738ZM88.1946 38.5374L100.346 50.7123L101.761 49.2995L89.6102 37.1246L88.1946 38.5374ZM88.3072 13.1185C81.3118 20.1277 81.2431 31.5722 88.1946 38.5374L89.6102 37.1246C83.4507 30.953 83.4937 20.7727 89.7228 14.5313L88.3072 13.1185ZM101.081 7.82482C96.4628 7.82575 91.8265 9.59224 88.3072 13.1185L89.7228 14.5313C92.8508 11.3971 96.9708 9.82565 101.081 9.82482L101.081 7.82482ZM101.079 9.82482C103.307 9.8297 105.536 10.2941 107.608 11.2166L108.421 9.38959C106.091 8.35177 103.586 7.83031 101.083 7.82483L101.079 9.82482ZM124.777 21.7382L160.173 57.2037L161.589 55.7909L126.193 20.3254L124.777 21.7382ZM160.228 57.2552L160.229 57.2559L161.534 55.7403L161.533 55.7395L160.228 57.2552ZM191.867 57.1703L191.868 57.1695L190.387 55.8251L190.386 55.8259L191.867 57.1703ZM191.835 57.2037L237.146 11.8031L235.731 10.3903L190.419 55.7909L191.835 57.2037ZM237.177 11.7708L237.178 11.77L235.701 10.4218L235.7 10.4226L237.177 11.7708ZM237.147 11.8024C244.773 4.16232 257.264 4.25545 264.909 11.9152L266.325 10.5023C257.912 2.07367 244.152 1.95277 235.731 10.3895L237.147 11.8024ZM264.964 11.9662L264.965 11.967L266.271 10.4521L266.27 10.4513L264.964 11.9662ZM265.047 39.7165L265.046 39.7173L266.413 41.177L266.414 41.1761L265.047 39.7165ZM265.022 39.7407L219.71 85.1413L221.126 86.5542L266.437 41.1536L265.022 39.7407ZM219.738 85.1147L219.737 85.1155L221.098 86.5817L221.098 86.5808L219.738 85.1147ZM219.71 85.1422C210.969 93.9007 210.969 108.099 219.71 116.858L221.125 115.445C213.164 107.467 213.164 94.5327 221.125 86.555L219.71 85.1422ZM219.767 116.911L219.768 116.912L221.069 115.393L221.068 115.392L219.767 116.911ZM219.71 116.859L265.022 162.259L266.437 160.846L221.126 115.446L219.71 116.859ZM265.079 162.312L265.08 162.313L266.381 160.794L266.38 160.793L265.079 162.312ZM264.938 190.057L264.937 190.058L266.297 191.524L266.298 191.523L264.938 190.057ZM264.909 190.085C257.264 197.745 244.773 197.838 237.147 190.198L235.731 191.611C244.152 200.047 257.912 199.926 266.325 191.498L264.909 190.085ZM237.202 190.258L237.202 190.257L235.675 191.549L235.676 191.55L237.202 190.258ZM237.146 190.197L191.835 144.796L190.419 146.209L235.731 191.61L237.146 190.197ZM191.89 144.856L191.89 144.856L190.363 146.148L190.364 146.149L191.89 144.856ZM160.202 144.769L160.201 144.77L161.561 146.236L161.562 146.235L160.202 144.769ZM160.173 144.796L124.777 180.262L126.193 181.675L161.589 146.209L160.173 144.796ZM126.298 181.945C126.358 181.685 126.414 181.424 126.466 181.163L124.504 180.773C124.456 181.015 124.405 181.255 124.349 181.495L126.298 181.945ZM160.469 145.091L124.616 181.014L126.032 182.427L161.884 146.503L160.469 145.091ZM160.44 145.12L160.439 145.121L161.913 146.473L161.914 146.472L160.44 145.12ZM191.539 145.09C182.959 136.494 169.049 136.494 160.469 145.09L161.885 146.503C169.683 138.69 182.325 138.69 190.123 146.503L191.539 145.09ZM191.482 145.037L191.482 145.037L190.181 146.556L190.181 146.556L191.482 145.037ZM236.851 190.491L191.54 145.091L190.124 146.503L235.435 191.904L236.851 190.491ZM236.801 190.445L236.8 190.444L235.486 191.951L235.487 191.952L236.801 190.445ZM265.184 190.401L265.183 190.401L266.642 191.77L266.642 191.769L265.184 190.401ZM265.318 161.966C273.109 169.774 273.011 182.557 265.205 190.378L266.621 191.791C275.192 183.203 275.318 169.155 266.733 160.553L265.318 161.966ZM265.262 161.905L265.262 161.906L266.789 160.613L266.788 160.612L265.262 161.905ZM220.006 116.564L265.317 161.965L266.733 160.552L221.421 115.151L220.006 116.564ZM219.95 116.503L219.95 116.504L221.477 115.212L221.476 115.211L219.95 116.503ZM219.977 85.4661L219.976 85.4669L221.45 86.8189L221.45 86.8181L219.977 85.4661ZM265.317 40.035L220.006 85.4357L221.421 86.8485L266.733 41.4478L265.317 40.035ZM265.287 40.0665L265.286 40.0673L266.764 41.4155L266.764 41.4147L265.287 40.0665ZM265.205 11.6216C273.011 19.4434 273.109 32.2264 265.318 40.0343L266.733 41.447C275.318 32.8446 275.192 18.7974 266.621 10.2089L265.205 11.6216ZM265.148 11.5589L265.148 11.5597L266.678 10.2708L266.677 10.27L265.148 11.5589ZM191.511 56.9369L191.512 56.936L190.152 55.4699L190.151 55.4708L191.511 56.9369ZM160.469 56.9103C169.049 65.5059 182.959 65.5059 191.539 56.9103L190.123 55.4974C182.325 63.3102 169.683 63.3102 161.885 55.4974L160.469 56.9103ZM160.412 56.8474L160.412 56.8483L161.942 55.5594L161.941 55.5586L160.412 56.8474ZM124.616 20.9862L160.469 56.9094L161.884 55.4966L126.032 19.5734L124.616 20.9862ZM126.466 20.837C126.414 20.5756 126.358 20.3149 126.298 20.0549L124.349 20.5048C124.405 20.7447 124.456 20.9854 124.504 21.2267L126.466 20.837ZM80.8548 23.3801L81.3626 22.8727L79.9489 21.458L79.4411 21.9654L80.8548 23.3801ZM86.9857 39.7399C82.2904 35.0353 80.5184 28.4833 81.6395 22.345L79.672 21.9856C78.4401 28.7304 80.384 35.9564 85.5701 41.1527L86.9857 39.7399ZM87.0377 39.7961L87.0369 39.7952L85.5189 41.0974L85.5196 41.0982L87.0377 39.7961ZM99.1403 51.9185L86.9865 39.7408L85.5709 41.1536L97.7247 53.3314L99.1403 51.9185ZM97.7256 51.9176L97.4307 52.2123L98.8444 53.627L99.1393 53.3323L97.7256 51.9176ZM98.8454 52.2133L86.6912 40.035L85.2756 41.4478L97.4297 53.6261L98.8454 52.2133ZM86.635 39.9829L86.6341 39.9821L85.3309 41.4992L85.3318 41.5L86.635 39.9829ZM86.6903 40.0343C82.0352 35.3695 80.1945 28.9302 81.1363 22.8252L79.1597 22.5203C78.1266 29.2167 80.1435 36.3052 85.2746 41.447L86.6903 40.0343ZM14.4849 89.7038L76.9067 27.3255L75.493 25.9107L13.0712 88.2891L14.4849 89.7038ZM13.3536 111.024C8.30464 104.732 8.6848 95.4999 14.4849 89.7038L13.0712 88.2891C6.53556 94.8202 6.11824 105.203 11.7937 112.276L13.3536 111.024ZM13.3587 111.03L13.3583 111.03L11.789 112.27L11.7894 112.27L13.3587 111.03ZM13.3522 111.022L13.3517 111.021L11.7963 112.279L11.7968 112.279L13.3522 111.022ZM13.3589 111.03L13.3547 111.025L11.7944 112.276L11.7985 112.282L13.3589 111.03ZM14.5522 112.363C14.1242 111.936 13.7269 111.491 13.3599 111.032L11.7975 112.28C12.2109 112.797 12.6577 113.298 13.1385 113.778L14.5522 112.363ZM76.9067 174.674L14.5522 112.363L13.1385 113.778L75.493 176.089L76.9067 174.674ZM77.1995 175.409C77.3559 169.571 79.6326 163.792 84.0666 159.35L82.6509 157.937C77.8377 162.76 75.3696 169.033 75.2002 175.355L77.1995 175.409ZM84.0666 159.35L96.2245 147.168L94.8089 145.755L82.6509 157.937L84.0666 159.35ZM67.1578 119.536L94.8099 147.169L96.2236 145.754L68.5715 118.121L67.1578 119.536ZM67.1578 82.4642C56.9136 92.7012 56.9136 109.299 67.1577 119.536L68.5715 118.121C59.109 108.665 59.109 93.3348 68.5715 83.8789L67.1578 82.4642ZM94.8098 54.8313L67.1578 82.4642L68.5715 83.8789L96.2236 56.2461L94.8098 54.8313ZM96.2245 54.8323L84.0666 42.6504L82.6509 44.0632L94.8089 56.2451L96.2245 54.8323ZM84.0666 42.6504C79.6326 38.2077 77.3559 32.4287 77.1995 26.5913L75.2002 26.6449C75.3696 32.967 77.8377 39.2404 82.6509 44.0632L84.0666 42.6504ZM112.615 2.71515C102.953 -2.09418 90.8759 -0.528399 82.8142 7.52769L84.2279 8.9424C91.6578 1.51762 102.801 0.0638993 111.723 4.50558L112.615 2.71515ZM82.8142 7.52769L7.53284 82.7566L8.94656 84.1713L84.2279 8.9424L82.8142 7.52769ZM7.53284 82.7566C-1.88341 92.1663 -2.43859 107.046 5.68145 117.168L7.24147 115.916C-0.253459 106.574 0.267187 92.8447 8.94656 84.1713L7.53284 82.7566ZM5.68042 117.166C6.27414 117.909 6.91416 118.625 7.60006 119.31L9.0138 117.896C8.3805 117.263 7.79 116.602 7.24251 115.917L5.68042 117.166ZM7.60007 119.31L82.8142 194.472L84.2279 193.058L9.01379 117.896L7.60007 119.31ZM82.8142 194.472C87.8447 199.499 94.4423 202 101.037 202L101.037 200C94.9477 200 88.8661 197.693 84.2279 193.058L82.8142 194.472ZM111.735 197.489C108.386 199.174 104.714 200.009 101.039 200L101.034 202C105.014 202.01 108.997 201.106 112.634 199.275L111.735 197.489ZM112.631 199.277C115.068 198.061 117.351 196.44 119.376 194.417L117.962 193.002C116.092 194.871 113.985 196.366 111.738 197.487L112.631 199.277ZM119.376 194.417C119.791 194.001 120.19 193.575 120.571 193.139L119.066 191.822C118.714 192.225 118.346 192.618 117.962 193.002L119.376 194.417ZM163.093 147.706L119.111 191.774L120.527 193.187L164.509 149.119L163.093 147.706ZM188.915 147.706C181.784 140.56 170.225 140.56 163.093 147.706L164.509 149.119C170.859 142.756 181.149 142.756 187.5 149.119L188.915 147.706ZM234.227 193.107L188.915 147.706L187.5 149.119L232.812 194.52L234.227 193.107ZM267.829 192.994C258.601 202.241 243.492 202.391 234.227 193.107L232.811 194.52C242.873 204.601 259.25 204.422 269.245 194.407L267.829 192.994ZM267.942 159.35C277.202 168.629 277.053 183.752 267.829 192.994L269.245 194.407C279.233 184.399 279.411 168.011 269.357 157.937L267.942 159.35ZM222.629 113.948L267.942 159.35L269.357 157.937L224.045 112.535L222.629 113.948ZM222.629 88.0518C215.493 95.202 215.493 106.798 222.629 113.948L224.045 112.535C217.688 106.166 217.688 95.8341 224.045 89.4646L222.629 88.0518ZM267.942 42.6504L222.629 88.0518L224.045 89.4646L269.357 44.0632L267.942 42.6504ZM267.829 9.00555C277.053 18.2476 277.202 33.3714 267.942 42.6504L269.357 44.0632C279.411 33.989 279.233 17.601 269.245 7.59273L267.829 9.00555ZM234.227 8.89271C243.492 -0.390927 258.601 -0.240871 267.829 9.00555L269.245 7.59273C259.25 -2.42195 242.873 -2.60122 232.812 7.4799L234.227 8.89271ZM188.915 54.2941L234.227 8.89271L232.812 7.4799L187.5 52.8813L188.915 54.2941ZM163.093 54.2941C170.225 61.4397 181.784 61.4397 188.915 54.2941L187.5 52.8813C181.149 59.244 170.859 59.244 164.509 52.8813L163.093 54.2941ZM119.112 10.2261L163.093 54.2941L164.509 52.8813L120.527 8.81328L119.112 10.2261ZM120.572 8.86117C120.19 8.42493 119.792 7.99871 119.376 7.58337L117.962 8.99808C118.346 9.38185 118.715 9.7755 119.067 10.1782L120.572 8.86117ZM119.376 7.58337C117.346 5.55505 115.058 3.93139 112.615 2.71515L111.723 4.50558C113.976 5.62706 116.088 7.12467 117.962 8.99808L119.376 7.58337ZM104.375 144.246L132.002 116.564L130.587 115.151L102.96 142.833L104.375 144.246ZM131.968 116.597L131.969 116.596L130.622 115.118L130.621 115.119L131.968 116.597ZM131.947 85.3843L131.946 85.3835L130.643 86.9006L130.644 86.9014L131.947 85.3843ZM132.002 85.4357L104.375 57.7541L102.96 59.1669L130.587 86.8485L132.002 85.4357ZM104.374 59.1679L104.669 58.8732L103.256 57.4584L102.961 57.7532L104.374 59.1679ZM132.298 85.1413L104.67 57.4594L103.255 58.8722L130.882 86.5542L132.298 85.1413ZM132.354 85.2024L132.353 85.2015L130.827 86.494L130.828 86.4948L132.354 85.2024ZM132.299 116.858C141.039 108.099 141.039 93.9007 132.299 85.1422L130.883 86.555C138.844 94.5327 138.844 107.467 130.883 115.445L132.299 116.858ZM132.334 116.821L132.334 116.82L130.847 115.483L130.846 115.484L132.334 116.821ZM104.67 144.541L132.298 116.859L130.882 115.446L103.255 143.128L104.67 144.541ZM104.669 143.127L104.374 142.832L102.961 144.247L103.256 144.541L104.669 143.127ZM86.6912 161.965L98.8454 149.787L97.4298 148.374L85.2756 160.552L86.6912 161.965ZM86.6555 161.999L86.6564 161.998L85.3104 160.519L85.3094 160.52L86.6555 161.999ZM81.1362 179.175C80.1945 173.07 82.0352 166.63 86.6903 161.966L85.2747 160.553C80.1435 165.695 78.1266 172.783 79.1596 179.48L81.1362 179.175ZM81.3626 179.127L80.8548 178.62L79.4411 180.035L79.9488 180.542L81.3626 179.127ZM81.6394 179.655C80.5184 173.517 82.2905 166.965 86.9857 162.26L85.5701 160.847C80.384 166.044 78.4402 173.27 79.672 180.014L81.6394 179.655ZM87.0217 162.222L87.0224 162.221L85.5348 160.884L85.5341 160.885L87.0217 162.222ZM86.9864 162.259L99.1403 150.081L97.7247 148.669L85.5708 160.846L86.9864 162.259ZM97.4307 149.788L97.7256 150.082L99.1394 148.668L98.8444 148.373L97.4307 149.788ZM100.346 151.288L88.1946 163.462L89.6102 164.875L101.761 152.7L100.346 151.288ZM88.1946 163.463C81.2431 170.428 81.3118 181.872 88.3072 188.882L89.7228 187.469C83.4937 181.227 83.4507 171.047 89.6102 164.875L88.1946 163.463ZM88.3072 188.882C93.7437 194.329 101.843 195.578 108.441 192.602L107.619 190.778C101.758 193.422 94.5553 192.311 89.7228 187.469L88.3072 188.882ZM108.441 192.602C110.335 191.747 112.106 190.544 113.653 188.994L112.237 187.582C110.865 188.956 109.297 190.022 107.619 190.778L108.441 192.602ZM113.653 188.994L114.772 187.873L113.357 186.46L112.237 187.582L113.653 188.994ZM112.48 164.826C118.397 170.74 118.67 180.223 113.303 186.518L114.825 187.815C120.858 180.74 120.561 170.075 113.893 163.411L112.48 164.826ZM100.346 152.701L112.48 164.826L113.893 163.411L101.76 151.287L100.346 152.701ZM101.754 140.213L74.1098 112.589L72.6961 114.003L100.34 141.628L101.754 140.213ZM74.1098 112.589C67.7051 106.188 67.7051 95.8116 74.1098 89.4113L72.6961 87.9966C65.5097 95.178 65.5097 106.822 72.6961 114.003L74.1098 112.589ZM74.1098 89.4113L101.753 61.7869L100.34 60.3722L72.6961 87.9966L74.1098 89.4113ZM129.379 88.0518L101.754 60.3731L100.339 61.786L127.963 89.4646L129.379 88.0518ZM129.379 113.948C136.515 106.798 136.515 95.2019 129.379 88.0518L127.963 89.4646C134.32 95.834 134.32 106.166 127.963 112.535L129.379 113.948ZM101.754 141.627L129.379 113.948L127.963 112.535L100.339 140.214L101.754 141.627ZM340.739 112.282L340.743 112.276L339.183 111.025L339.179 111.03L340.739 112.282ZM339.399 113.778C339.88 113.298 340.327 112.797 340.74 112.28L339.178 111.032C338.811 111.491 338.413 111.936 337.985 112.363L339.399 113.778ZM264.185 188.94L339.399 113.778L337.985 112.363L262.771 187.525L264.185 188.94ZM238.7 188.884C245.733 195.913 257.174 195.946 264.185 188.94L262.771 187.525C256.547 193.745 246.372 193.724 240.114 187.469L238.7 188.884ZM238.644 163.411C231.632 170.419 231.666 181.855 238.7 188.884L240.114 187.469C233.855 181.215 233.834 171.046 240.058 164.826L238.644 163.411ZM283.966 118.121L238.644 163.411L240.058 164.826L285.38 119.536L283.966 118.121ZM283.966 83.8789C293.429 93.3348 293.429 108.665 283.966 118.121L285.38 119.536C295.624 109.299 295.624 92.7012 285.38 82.4642L283.966 83.8789ZM255.896 55.8285L283.966 83.8789L285.38 82.4642L257.31 54.4138L255.896 55.8285ZM257.31 55.8286L268.984 44.1639L267.57 42.7491L255.896 54.4138L257.31 55.8286ZM268.984 44.1639C274.043 39.1082 276.574 32.4794 276.574 25.8548L274.574 25.8549C274.574 31.97 272.239 38.0834 267.57 42.7491L268.984 44.1639ZM339.466 88.2891L276.281 25.1475L274.867 26.5622L338.053 89.7038L339.466 88.2891ZM340.744 112.276C346.419 105.203 346.002 94.8202 339.466 88.2891L338.053 89.7038C343.853 95.4999 344.233 104.732 339.184 111.024L340.744 112.276ZM340.755 112.261L340.755 112.261L339.173 111.038L339.172 111.039L340.755 112.261ZM340.736 112.285L340.736 112.285L339.191 111.016L339.19 111.016L340.736 112.285ZM89.2035 164.542L227.28 26.573L225.866 25.1583L87.7898 163.127L89.2035 164.542ZM89.1917 187.236C82.9255 180.975 82.9259 170.814 89.2035 164.542L87.7898 163.127C80.7314 170.18 80.7291 181.607 87.778 188.651L89.1917 187.236ZM111.906 187.224C105.628 193.497 95.4582 193.498 89.1917 187.236L87.778 188.651C94.8264 195.694 106.262 195.691 113.32 188.639L111.906 187.224ZM244.821 54.4129L111.906 187.224L113.32 188.639L246.234 55.8277L244.821 54.4129ZM246.234 54.413L234.52 42.7062L233.106 44.1209L244.821 55.8277L246.234 54.413ZM234.52 42.7062C229.871 38.0604 227.562 31.9659 227.573 25.8674L225.573 25.8639C225.561 32.4697 228.064 39.0821 233.106 44.1209L234.52 42.7062ZM251.115 0.003335C244.349 -0.104913 237.543 2.4228 232.378 7.58407L233.791 8.99883C238.558 4.23568 244.835 1.90313 251.083 2.00308L251.115 0.003335ZM232.378 7.58407L82.2516 157.593L83.6653 159.008L233.791 8.99884L232.378 7.58407ZM82.2516 157.593C72.1385 167.698 72.128 184.081 82.2396 194.185L83.6532 192.77C74.3246 183.449 74.3328 168.333 83.6653 159.008L82.2516 157.593ZM82.2396 194.185C92.3507 204.288 108.745 204.278 118.858 194.173L117.444 192.758C108.111 202.084 92.9824 202.092 83.6532 192.77L82.2396 194.185ZM118.858 194.173L251.772 61.3618L250.359 59.947L117.444 192.758L118.858 194.173ZM279.842 87.9966L251.772 59.9471L250.359 61.3618L278.428 89.4113L279.842 87.9966ZM279.842 114.003C287.028 106.822 287.028 95.178 279.842 87.9966L278.428 89.4113C284.833 95.8116 284.833 106.188 278.428 112.589L279.842 114.003ZM234.52 159.294L279.842 114.003L278.428 112.589L233.106 157.879L234.52 159.294ZM234.575 193.002C225.285 183.718 225.211 168.596 234.52 159.294L233.106 157.879C223.008 167.969 223.097 184.359 233.162 194.417L234.575 193.002ZM268.31 193.058C259.001 202.36 243.866 202.286 234.575 193.002L233.162 194.417C243.226 204.474 259.626 204.562 269.723 194.472L268.31 193.058ZM343.524 117.896L268.31 193.058L269.723 194.472L344.938 119.31L343.524 117.896ZM345.295 115.917C344.748 116.602 344.157 117.263 343.524 117.896L344.938 119.31C345.623 118.625 346.263 117.909 346.857 117.166L345.295 115.917ZM343.591 84.1713C352.27 92.8447 352.791 106.574 345.296 115.916L346.856 117.168C354.976 107.046 354.421 92.1663 345.005 82.7566L343.591 84.1713ZM268.31 8.9424L343.591 84.1713L345.005 82.7566L269.723 7.52769L268.31 8.9424ZM251.115 2.00308C257.333 1.90368 263.574 4.20964 268.31 8.9424L269.723 7.52769C264.587 2.39449 257.816 -0.104305 251.083 0.00333482L251.115 2.00308ZM238.644 38.5885L250.358 50.2944L251.772 48.8797L240.058 37.1738L238.644 38.5885ZM238.7 13.1158C231.666 20.1452 231.632 31.5808 238.644 38.5885L240.058 37.1738C233.833 30.9537 233.855 20.7851 240.114 14.5305L238.7 13.1158ZM251.039 7.83047C246.564 7.94225 242.113 9.70493 238.7 13.1158L240.114 14.5305C243.149 11.4974 247.105 9.92936 251.089 9.82984L251.039 7.83047ZM251.043 9.82993C255.037 9.91536 259 11.4792 262.044 14.5209L263.457 13.1061C260.034 9.68542 255.574 7.92639 251.086 7.83039L251.043 9.82993ZM262.044 14.5209C268.31 20.7821 268.31 30.9425 262.032 37.2153L263.446 38.63C270.504 31.5771 270.506 20.1495 263.457 13.1061L262.044 14.5209ZM262.032 37.2153L250.358 48.8797L251.772 50.2945L263.446 38.63L262.032 37.2153Z" fill="url(#paint3_linear_1_100)" mask="url(#path-1-outside-1_1_100)"/>
<defs>
<linearGradient id="paint0_linear_1_100" x1="-73.4893" y1="-85.6663" x2="359.078" y2="-69.9561" gradientUnits="userSpaceOnUse">
<stop stop-color="#FF003D"/>
<stop offset="1" stop-color="#CC00FF"/>
</linearGradient>
<linearGradient id="paint1_linear_1_100" x1="-73.4893" y1="-85.6663" x2="359.078" y2="-69.9561" gradientUnits="userSpaceOnUse">
<stop stop-color="#FF003D"/>
<stop offset="1" stop-color="#CC00FF"/>
</linearGradient>
<linearGradient id="paint2_linear_1_100" x1="-73.4893" y1="-85.6663" x2="359.078" y2="-69.9561" gradientUnits="userSpaceOnUse">
<stop stop-color="#FF003D"/>
<stop offset="1" stop-color="#CC00FF"/>
</linearGradient>
<linearGradient id="paint3_linear_1_100" x1="-73.4893" y1="-85.6663" x2="359.078" y2="-69.9561" gradientUnits="userSpaceOnUse">
<stop stop-color="#FF003D"/>
<stop offset="1" stop-color="#CC00FF"/>
</linearGradient>
</defs>
</svg>
