<svg width="279" height="180" viewBox="0 0 279 180" fill="none" xmlns="http://www.w3.org/2000/svg">
<path d="M13.8139 180C11.1319 180 8.53066 179.644 6.01024 178.931C3.52213 178.186 1.51872 177.231 0 176.065L2.66583 170.139C4.11992 171.208 5.84867 172.066 7.85209 172.714C9.8555 173.361 11.8589 173.685 13.8623 173.685C16.0919 173.685 17.7399 173.361 18.8062 172.714C19.8726 172.033 20.4057 171.143 20.4057 170.042C20.4057 169.232 20.0826 168.568 19.4363 168.05C18.8224 167.5 18.0146 167.062 17.0129 166.739C16.0435 166.415 14.7186 166.059 13.0383 165.67C10.4533 165.055 8.33678 164.439 6.68882 163.824C5.04085 163.209 3.61907 162.221 2.42348 160.861C1.26021 159.501 0.678575 157.687 0.678575 155.42C0.678575 153.445 1.21174 151.664 2.27807 150.077C3.34441 148.458 4.94391 147.178 7.07657 146.239C9.24155 145.3 11.8751 144.831 14.9771 144.831C17.1421 144.831 19.2586 145.09 21.3267 145.608C23.3947 146.126 25.2042 146.871 26.7553 147.842L24.3318 153.817C21.1974 152.036 18.063 151.146 14.9287 151.146C12.7314 151.146 11.0996 151.502 10.0332 152.214C8.9992 152.927 8.48219 153.866 8.48219 155.032C8.48219 156.198 9.07999 157.072 10.2756 157.655C11.5035 158.205 13.3615 158.756 15.8496 159.306C18.4346 159.922 20.5511 160.537 22.1991 161.152C23.8471 161.768 25.2527 162.739 26.416 164.067C27.6116 165.395 28.2094 167.192 28.2094 169.459C28.2094 171.402 27.66 173.183 26.5614 174.802C25.4951 176.389 23.8794 177.652 21.7144 178.591C19.5494 179.53 16.9159 180 13.8139 180Z" fill="white"/>
<path d="M45.0136 152.894C49.0527 152.894 52.1548 153.866 54.3197 155.809C56.4847 157.72 57.5672 160.618 57.5672 164.504V179.417H50.4906V176.162C49.0689 178.591 46.4192 179.806 42.5416 179.806C40.5382 179.806 38.7933 179.466 37.3069 178.786C35.8528 178.106 34.738 177.166 33.9625 175.968C33.187 174.77 32.7992 173.41 32.7992 171.888C32.7992 169.459 33.704 167.548 35.5135 166.156C37.3553 164.763 40.1827 164.067 43.9957 164.067H50.0059C50.0059 162.415 49.5051 161.152 48.5034 160.278C47.5017 159.371 45.9991 158.918 43.9957 158.918C42.6062 158.918 41.2329 159.144 39.8758 159.598C38.5509 160.019 37.42 160.602 36.4829 161.347L33.7686 156.052C35.1904 155.048 36.8868 154.271 38.8579 153.72C40.8613 153.17 42.9132 152.894 45.0136 152.894ZM44.4319 174.705C45.7244 174.705 46.8716 174.414 47.8733 173.831C48.875 173.215 49.5859 172.325 50.0059 171.159V168.487H44.8197C41.7176 168.487 40.1666 169.507 40.1666 171.548C40.1666 172.519 40.5382 173.296 41.2814 173.879C42.0569 174.43 43.1071 174.705 44.4319 174.705Z" fill="white"/>
<path d="M81.278 152.894C83.7014 152.894 85.8987 153.461 87.8698 154.594C89.8732 155.696 91.4404 157.266 92.5714 159.306C93.7023 161.314 94.2678 163.662 94.2678 166.35C94.2678 169.038 93.7023 171.402 92.5714 173.442C91.4404 175.45 89.8732 177.021 87.8698 178.154C85.8987 179.255 83.7014 179.806 81.278 179.806C77.6912 179.806 74.9608 178.672 73.0866 176.405V179.417H65.8646V143.373H73.4259V156.052C75.3324 153.947 77.9497 152.894 81.278 152.894ZM79.9693 173.588C81.9081 173.588 83.4914 172.94 84.7193 171.645C85.9795 170.317 86.6096 168.552 86.6096 166.35C86.6096 164.148 85.9795 162.399 84.7193 161.104C83.4914 159.776 81.9081 159.112 79.9693 159.112C78.0305 159.112 76.431 159.776 75.1708 161.104C73.9429 162.399 73.3289 164.148 73.3289 166.35C73.3289 168.552 73.9429 170.317 75.1708 171.645C76.431 172.94 78.0305 173.588 79.9693 173.588Z" fill="white"/>
<path d="M126.327 166.447C126.327 166.544 126.279 167.224 126.182 168.487H106.455C106.81 170.107 107.65 171.386 108.975 172.325C110.3 173.264 111.948 173.734 113.919 173.734C115.276 173.734 116.472 173.539 117.506 173.151C118.572 172.73 119.558 172.082 120.462 171.208L124.485 175.58C122.029 178.397 118.443 179.806 113.725 179.806C110.785 179.806 108.183 179.239 105.921 178.106C103.659 176.94 101.915 175.337 100.687 173.296C99.4587 171.256 98.8448 168.941 98.8448 166.35C98.8448 163.792 99.4426 161.492 100.638 159.452C101.866 157.38 103.53 155.777 105.631 154.643C107.763 153.477 110.138 152.894 112.756 152.894C115.308 152.894 117.619 153.445 119.687 154.546C121.755 155.647 123.37 157.234 124.534 159.306C125.729 161.347 126.327 163.727 126.327 166.447ZM112.804 158.626C111.091 158.626 109.654 159.112 108.49 160.084C107.327 161.055 106.616 162.383 106.358 164.067H119.202C118.944 162.415 118.233 161.104 117.069 160.132C115.906 159.128 114.484 158.626 112.804 158.626Z" fill="white"/>
<path d="M140.037 156.732C140.942 155.469 142.154 154.514 143.672 153.866C145.223 153.218 147.001 152.894 149.004 152.894V159.889C148.164 159.825 147.598 159.792 147.308 159.792C145.143 159.792 143.446 160.407 142.218 161.638C140.99 162.836 140.377 164.65 140.377 167.079V179.417H132.815V153.283H140.037V156.732Z" fill="white"/>
<path d="M167.3 145.414H170.887V176.308H189.887V179.417H167.3V145.414Z" fill="white"/>
<path d="M205.582 153.672C208.91 153.672 211.463 154.514 213.24 156.198C215.018 157.849 215.906 160.31 215.906 163.581V179.417H212.61V175.434C211.835 176.762 210.688 177.798 209.169 178.543C207.682 179.288 205.905 179.66 203.837 179.66C200.994 179.66 198.732 178.98 197.051 177.62C195.371 176.26 194.531 174.462 194.531 172.228C194.531 170.058 195.307 168.309 196.858 166.981C198.441 165.654 200.945 164.99 204.37 164.99H212.465V163.435C212.465 161.233 211.851 159.565 210.623 158.432C209.395 157.266 207.602 156.683 205.243 156.683C203.627 156.683 202.076 156.959 200.59 157.509C199.103 158.027 197.827 158.756 196.761 159.695L195.21 157.12C196.502 156.019 198.053 155.177 199.863 154.594C201.672 153.979 203.579 153.672 205.582 153.672ZM204.37 176.94C206.309 176.94 207.973 176.503 209.363 175.628C210.752 174.721 211.786 173.426 212.465 171.742V167.564H204.467C200.105 167.564 197.924 169.086 197.924 172.131C197.924 173.62 198.489 174.802 199.62 175.677C200.751 176.519 202.335 176.94 204.37 176.94Z" fill="white"/>
<path d="M239.843 153.672C242.234 153.672 244.399 154.222 246.338 155.323C248.276 156.392 249.795 157.914 250.894 159.889C251.992 161.865 252.542 164.115 252.542 166.641C252.542 169.167 251.992 171.418 250.894 173.394C249.795 175.369 248.276 176.907 246.338 178.008C244.399 179.109 242.234 179.66 239.843 179.66C237.71 179.66 235.787 179.207 234.075 178.3C232.394 177.393 231.037 176.082 230.003 174.365V179.417H226.707V143.373H230.149V158.723C231.215 157.072 232.572 155.825 234.22 154.983C235.9 154.109 237.775 153.672 239.843 153.672ZM239.6 176.6C241.377 176.6 242.993 176.195 244.447 175.385C245.901 174.543 247.032 173.361 247.84 171.839C248.68 170.317 249.1 168.585 249.1 166.641C249.1 164.698 248.68 162.966 247.84 161.444C247.032 159.922 245.901 158.756 244.447 157.946C242.993 157.104 241.377 156.683 239.6 156.683C237.791 156.683 236.159 157.104 234.705 157.946C233.283 158.756 232.152 159.922 231.312 161.444C230.504 162.966 230.1 164.698 230.1 166.641C230.1 168.585 230.504 170.317 231.312 171.839C232.152 173.361 233.283 174.543 234.705 175.385C236.159 176.195 237.791 176.6 239.6 176.6Z" fill="white"/>
<path d="M267.845 179.66C265.777 179.66 263.79 179.369 261.883 178.786C260.009 178.17 258.539 177.409 257.473 176.503L259.024 173.782C260.09 174.624 261.431 175.32 263.047 175.871C264.662 176.389 266.343 176.648 268.088 176.648C270.414 176.648 272.127 176.292 273.225 175.58C274.356 174.835 274.922 173.798 274.922 172.471C274.922 171.532 274.615 170.803 274.001 170.285C273.387 169.734 272.611 169.329 271.674 169.07C270.737 168.779 269.493 168.504 267.942 168.244C265.874 167.856 264.21 167.467 262.95 167.079C261.69 166.658 260.607 165.961 259.702 164.99C258.83 164.018 258.394 162.674 258.394 160.958C258.394 158.821 259.282 157.072 261.059 155.712C262.837 154.352 265.309 153.672 268.475 153.672C270.123 153.672 271.771 153.898 273.419 154.352C275.067 154.773 276.424 155.339 277.491 156.052L275.988 158.821C273.888 157.363 271.383 156.635 268.475 156.635C266.278 156.635 264.614 157.023 263.483 157.801C262.384 158.578 261.835 159.598 261.835 160.861C261.835 161.832 262.142 162.61 262.756 163.193C263.402 163.775 264.194 164.213 265.131 164.504C266.068 164.763 267.36 165.038 269.008 165.33C271.044 165.719 272.676 166.107 273.904 166.496C275.132 166.884 276.182 167.548 277.054 168.487C277.927 169.427 278.363 170.722 278.363 172.373C278.363 174.608 277.426 176.389 275.552 177.717C273.71 179.012 271.141 179.66 267.845 179.66Z" fill="white"/>
<mask id="path-2-outside-1_1_106" maskUnits="userSpaceOnUse" x="31.0493" y="4.10693" width="217" height="124" fill="black">
<rect fill="white" x="31.0493" y="4.10693" width="217" height="124"/>
<path fill-rule="evenodd" clip-rule="evenodd" d="M166.42 56.9666L194.169 29.2168C199.083 24.3031 199.018 16.2644 194.101 11.3471C189.183 6.42975 181.145 6.36433 176.231 11.2781L148.482 39.0278C143.368 44.1426 135.075 44.1426 129.96 39.0278L102.212 11.2781C97.2979 6.36434 89.2595 6.42975 84.3423 11.3471C79.4251 16.2644 79.3597 24.3031 84.2733 29.2169L112.022 56.9666C117.137 62.0814 117.137 70.3741 112.022 75.4889L84.2733 103.239C79.3596 108.152 79.4251 116.191 84.3423 121.108C89.2595 126.026 97.2979 126.091 102.212 121.177L129.96 93.4277C135.075 88.3129 143.368 88.3129 148.482 93.4277L176.231 121.177C181.145 126.091 189.183 126.026 194.101 121.108C199.018 116.191 199.083 108.152 194.169 103.239L166.42 75.4889C161.306 70.3741 161.306 62.0814 166.42 56.9666ZM194.281 11.1667C189.266 6.15154 181.066 6.08257 176.051 11.0977L148.302 38.8475C143.287 43.8626 135.156 43.8626 130.141 38.8475L102.392 11.0977C97.3769 6.08257 89.1769 6.15153 84.1619 11.1667C79.1469 16.1819 79.0779 24.3821 84.0929 29.3972L111.842 57.147C116.857 62.1621 116.857 70.2934 111.842 75.3085L84.0929 103.058C79.0779 108.073 79.1469 116.274 84.1619 121.289C89.1769 126.304 97.3769 126.373 102.392 121.358L130.141 93.608C135.156 88.5929 143.287 88.5929 148.302 93.6081L176.051 121.358C181.066 126.373 189.266 126.304 194.281 121.289C199.296 116.274 199.365 108.073 194.35 103.058L166.601 75.3085C161.586 70.2934 161.586 62.1621 166.601 57.147L194.35 29.3972C199.365 24.382 199.296 16.1819 194.281 11.1667Z"/>
<path fill-rule="evenodd" clip-rule="evenodd" d="M100.129 6.70241C94.4385 3.87526 87.3285 4.79803 82.585 9.52905L36.4829 55.5096C30.942 61.0359 30.6126 69.7789 35.3939 75.7271C35.7433 76.1633 36.1201 76.584 36.5241 76.9869L82.585 122.926C85.5455 125.879 89.4279 127.348 93.3116 127.349C95.6555 127.354 97.9995 126.823 100.138 125.748C101.573 125.034 102.917 124.082 104.11 122.892C104.354 122.648 104.589 122.398 104.814 122.142L131.748 95.2066C135.876 91.0784 142.567 91.0784 146.695 95.2066L174.444 122.956C180.361 128.874 190.002 128.774 195.888 122.887C201.771 117.004 201.871 107.374 195.957 101.46L168.208 73.7101C164.077 69.5784 164.077 62.8771 168.208 58.7455L195.957 30.9957C201.871 25.0814 201.771 15.4512 195.888 9.56823C190.002 3.68196 180.361 3.58131 174.444 9.49926L146.695 37.249C142.567 41.3772 135.876 41.3772 131.748 37.249L104.814 10.3142C104.589 10.0579 104.354 9.8073 104.11 9.56308C102.914 8.3707 101.567 7.41683 100.129 6.70241ZM192.562 27.6184L164.813 55.3681C158.815 61.3664 158.815 71.0891 164.813 77.0874L192.562 104.837C196.577 108.852 196.543 115.46 192.493 119.51C188.447 123.556 181.849 123.59 177.838 119.579L150.09 91.8292C144.088 85.8274 134.355 85.8274 128.353 91.8292L108.569 111.614C108.445 107.912 106.974 104.248 104.144 101.425L96.7082 94.0091L113.629 77.0874C119.628 71.0891 119.628 61.3664 113.629 55.3681L96.7082 38.4464L104.144 31.0305C106.974 28.2072 108.445 24.5434 108.569 20.8416L128.353 40.6264C134.355 46.6281 144.088 46.6281 150.09 40.6264L177.838 12.8766C181.849 8.86553 188.447 8.89947 192.493 12.9456C196.543 16.9951 196.577 23.6037 192.562 27.6184ZM97.5847 10.7931C98.6822 11.2858 99.7078 11.9802 100.604 12.8766L101.29 13.5624C104.78 17.6484 104.606 23.8057 100.752 27.649L93.3217 35.0598L85.8805 27.6184C81.8659 23.6037 81.9001 16.9951 85.9495 12.9456C87.9849 10.9102 90.666 9.89007 93.3388 9.88953C94.7874 9.8927 96.2368 10.194 97.5847 10.7931ZM108.284 17.3505L129.96 39.0274L129.96 39.0278C135.075 44.1426 143.368 44.1426 148.482 39.0278L148.483 39.0274L176.231 11.2781L176.232 11.2776C181.145 6.36452 189.183 6.42993 194.1 11.3466L194.101 11.3471C199.018 16.2644 199.083 24.3031 194.169 29.2168L194.169 29.2174L166.42 56.9666L166.42 56.9671C161.306 62.0818 161.306 70.3738 166.42 75.4884L166.42 75.4889L194.169 103.238L194.169 103.239C199.083 108.152 199.018 116.191 194.101 121.108L194.1 121.109C189.183 126.026 181.145 126.091 176.232 121.178L176.231 121.177L148.483 93.4282L148.482 93.4277C143.368 88.3129 135.075 88.3129 129.96 93.4277L129.96 93.4282L108.284 115.105C108.253 115.259 108.22 115.412 108.185 115.565L130.141 93.608L130.141 93.6076C135.156 88.5931 143.286 88.5931 148.301 93.6076L148.302 93.6081L176.05 121.357L176.051 121.358C181.066 126.373 189.266 126.304 194.281 121.289L194.281 121.288C199.296 116.273 199.365 108.074 194.35 103.059L194.35 103.058L166.601 75.309L166.601 75.3085C161.586 70.2934 161.586 62.1621 166.601 57.147L166.601 57.1465L194.35 29.3972L194.35 29.3967C199.365 24.3817 199.296 16.1823 194.281 11.1672L194.281 11.1667C189.266 6.15154 181.066 6.08257 176.051 11.0977L148.302 38.8475L148.301 38.848C143.286 43.8625 135.156 43.8625 130.141 38.848L130.141 38.8475L108.185 16.8909C108.22 17.0437 108.253 17.1969 108.284 17.3505ZM80.5193 18.3535L80.8303 18.0433C80.1098 21.9805 81.2476 26.1911 84.2733 29.2169L84.2737 29.2174L91.7167 36.6605L91.5361 36.8407L84.0929 29.3972L84.0924 29.3967C81.0958 26.3998 79.9146 22.2657 80.5193 18.3535ZM78.1015 20.7649L39.8746 58.8911C36.0974 62.6583 35.8532 68.6527 39.137 72.7369L39.1372 72.7372L39.1375 72.7376L39.1401 72.7408C39.379 73.0392 39.6375 73.3279 39.9158 73.6055L78.1015 111.691C78.2012 107.975 79.6541 104.291 82.4856 101.46L89.9311 94.0141L72.997 77.1246C66.9629 71.1063 66.9629 61.3491 72.997 55.3309L89.9311 38.4414L82.4856 30.9957C79.6541 28.1642 78.2012 24.4809 78.1015 20.7649ZM94.9226 92.2282L111.841 75.3091L111.842 75.3085C116.857 70.2934 116.857 62.1621 111.842 57.147L111.841 57.1465L94.9226 40.2273L95.1032 40.0472L112.022 56.9666L112.023 56.9671C117.137 62.0818 117.137 70.3738 112.023 75.4884L112.022 75.4889L95.1032 92.4083L94.9226 92.2282ZM91.5361 95.6148L84.0929 103.058L84.0924 103.059C81.0958 106.056 79.9146 110.19 80.5193 114.102L80.8303 114.412C80.1098 110.475 81.2476 106.264 84.2733 103.239L84.2737 103.238L91.7167 95.795L91.5361 95.6148ZM93.3217 97.3957L85.8805 104.837C81.8659 108.852 81.9001 115.46 85.9495 119.51C89.0938 122.654 93.7793 123.376 97.5941 121.658C98.688 121.166 99.7104 120.473 100.604 119.579L101.29 118.893C104.78 114.807 104.606 108.65 100.752 104.806L93.3217 97.3957ZM93.3176 90.6274L76.3887 73.7431C72.2271 69.5925 72.2271 62.863 76.3887 58.7123L93.3176 41.8281L110.235 58.7455C114.366 62.8771 114.366 69.5784 110.235 73.7101L93.3176 90.6274Z"/>
<path fill-rule="evenodd" clip-rule="evenodd" d="M185.209 5.10889C181.224 5.04527 177.218 6.53058 174.177 9.56353L82.2405 101.25C76.2862 107.188 76.2805 116.814 82.2331 122.751C88.1857 128.687 97.838 128.681 103.792 122.743L185.189 41.5682L202.378 58.7123C206.54 62.863 206.54 69.5925 202.378 73.7431L174.623 101.425C168.681 107.351 168.731 116.981 174.657 122.892C180.584 128.803 190.24 128.853 196.182 122.926L242.243 76.9869C242.647 76.584 243.024 76.1633 243.373 75.7271C248.154 69.7789 247.825 61.0359 242.284 55.5096L196.182 9.52905C193.159 6.51398 189.175 5.04562 185.209 5.10889ZM239.629 72.7376L239.627 72.7408C239.388 73.0392 239.129 73.3279 238.851 73.6055L192.79 119.545C188.738 123.587 182.119 123.57 178.049 119.511C173.979 115.451 173.962 108.849 178.015 104.806L205.77 77.1246C211.804 71.1063 211.804 61.3491 205.77 55.3309L188.58 38.1862L195.729 31.0567C198.708 28.0858 200.198 24.1917 200.198 20.2984L238.892 58.8911C242.67 62.6583 242.914 68.6527 239.63 72.7369L239.63 72.7372L239.629 72.7376ZM170.19 20.305L85.632 104.633C81.5486 108.705 81.5478 115.302 85.6248 119.368C89.7018 123.434 96.3172 123.433 100.401 119.361L181.797 38.1857L174.623 31.0305C171.656 28.0708 170.183 24.1875 170.19 20.305ZM185.189 34.8038L178.015 27.649C173.962 23.6065 173.979 17.0042 178.049 12.9446C180.024 10.9752 182.598 9.95736 185.188 9.89279C187.785 9.94824 190.364 10.9637 192.345 12.9386C196.422 17.0046 196.421 23.602 192.337 27.6744L185.189 34.8038Z"/>
</mask>
<path fill-rule="evenodd" clip-rule="evenodd" d="M166.42 56.9666L194.169 29.2168C199.083 24.3031 199.018 16.2644 194.101 11.3471C189.183 6.42975 181.145 6.36433 176.231 11.2781L148.482 39.0278C143.368 44.1426 135.075 44.1426 129.96 39.0278L102.212 11.2781C97.2979 6.36434 89.2595 6.42975 84.3423 11.3471C79.4251 16.2644 79.3597 24.3031 84.2733 29.2169L112.022 56.9666C117.137 62.0814 117.137 70.3741 112.022 75.4889L84.2733 103.239C79.3596 108.152 79.4251 116.191 84.3423 121.108C89.2595 126.026 97.2979 126.091 102.212 121.177L129.96 93.4277C135.075 88.3129 143.368 88.3129 148.482 93.4277L176.231 121.177C181.145 126.091 189.183 126.026 194.101 121.108C199.018 116.191 199.083 108.152 194.169 103.239L166.42 75.4889C161.306 70.3741 161.306 62.0814 166.42 56.9666ZM194.281 11.1667C189.266 6.15154 181.066 6.08257 176.051 11.0977L148.302 38.8475C143.287 43.8626 135.156 43.8626 130.141 38.8475L102.392 11.0977C97.3769 6.08257 89.1769 6.15153 84.1619 11.1667C79.1469 16.1819 79.0779 24.3821 84.0929 29.3972L111.842 57.147C116.857 62.1621 116.857 70.2934 111.842 75.3085L84.0929 103.058C79.0779 108.073 79.1469 116.274 84.1619 121.289C89.1769 126.304 97.3769 126.373 102.392 121.358L130.141 93.608C135.156 88.5929 143.287 88.5929 148.302 93.6081L176.051 121.358C181.066 126.373 189.266 126.304 194.281 121.289C199.296 116.274 199.365 108.073 194.35 103.058L166.601 75.3085C161.586 70.2934 161.586 62.1621 166.601 57.147L194.35 29.3972C199.365 24.382 199.296 16.1819 194.281 11.1667Z" fill="url(#paint0_linear_1_106)"/>
<path fill-rule="evenodd" clip-rule="evenodd" d="M100.129 6.70241C94.4385 3.87526 87.3285 4.79803 82.585 9.52905L36.4829 55.5096C30.942 61.0359 30.6126 69.7789 35.3939 75.7271C35.7433 76.1633 36.1201 76.584 36.5241 76.9869L82.585 122.926C85.5455 125.879 89.4279 127.348 93.3116 127.349C95.6555 127.354 97.9995 126.823 100.138 125.748C101.573 125.034 102.917 124.082 104.11 122.892C104.354 122.648 104.589 122.398 104.814 122.142L131.748 95.2066C135.876 91.0784 142.567 91.0784 146.695 95.2066L174.444 122.956C180.361 128.874 190.002 128.774 195.888 122.887C201.771 117.004 201.871 107.374 195.957 101.46L168.208 73.7101C164.077 69.5784 164.077 62.8771 168.208 58.7455L195.957 30.9957C201.871 25.0814 201.771 15.4512 195.888 9.56823C190.002 3.68196 180.361 3.58131 174.444 9.49926L146.695 37.249C142.567 41.3772 135.876 41.3772 131.748 37.249L104.814 10.3142C104.589 10.0579 104.354 9.8073 104.11 9.56308C102.914 8.3707 101.567 7.41683 100.129 6.70241ZM192.562 27.6184L164.813 55.3681C158.815 61.3664 158.815 71.0891 164.813 77.0874L192.562 104.837C196.577 108.852 196.543 115.46 192.493 119.51C188.447 123.556 181.849 123.59 177.838 119.579L150.09 91.8292C144.088 85.8274 134.355 85.8274 128.353 91.8292L108.569 111.614C108.445 107.912 106.974 104.248 104.144 101.425L96.7082 94.0091L113.629 77.0874C119.628 71.0891 119.628 61.3664 113.629 55.3681L96.7082 38.4464L104.144 31.0305C106.974 28.2072 108.445 24.5434 108.569 20.8416L128.353 40.6264C134.355 46.6281 144.088 46.6281 150.09 40.6264L177.838 12.8766C181.849 8.86553 188.447 8.89947 192.493 12.9456C196.543 16.9951 196.577 23.6037 192.562 27.6184ZM97.5847 10.7931C98.6822 11.2858 99.7078 11.9802 100.604 12.8766L101.29 13.5624C104.78 17.6484 104.606 23.8057 100.752 27.649L93.3217 35.0598L85.8805 27.6184C81.8659 23.6037 81.9001 16.9951 85.9495 12.9456C87.9849 10.9102 90.666 9.89007 93.3388 9.88953C94.7874 9.8927 96.2368 10.194 97.5847 10.7931ZM108.284 17.3505L129.96 39.0274L129.96 39.0278C135.075 44.1426 143.368 44.1426 148.482 39.0278L148.483 39.0274L176.231 11.2781L176.232 11.2776C181.145 6.36452 189.183 6.42993 194.1 11.3466L194.101 11.3471C199.018 16.2644 199.083 24.3031 194.169 29.2168L194.169 29.2174L166.42 56.9666L166.42 56.9671C161.306 62.0818 161.306 70.3738 166.42 75.4884L166.42 75.4889L194.169 103.238L194.169 103.239C199.083 108.152 199.018 116.191 194.101 121.108L194.1 121.109C189.183 126.026 181.145 126.091 176.232 121.178L176.231 121.177L148.483 93.4282L148.482 93.4277C143.368 88.3129 135.075 88.3129 129.96 93.4277L129.96 93.4282L108.284 115.105C108.253 115.259 108.22 115.412 108.185 115.565L130.141 93.608L130.141 93.6076C135.156 88.5931 143.286 88.5931 148.301 93.6076L148.302 93.6081L176.05 121.357L176.051 121.358C181.066 126.373 189.266 126.304 194.281 121.289L194.281 121.288C199.296 116.273 199.365 108.074 194.35 103.059L194.35 103.058L166.601 75.309L166.601 75.3085C161.586 70.2934 161.586 62.1621 166.601 57.147L166.601 57.1465L194.35 29.3972L194.35 29.3967C199.365 24.3817 199.296 16.1823 194.281 11.1672L194.281 11.1667C189.266 6.15154 181.066 6.08257 176.051 11.0977L148.302 38.8475L148.301 38.848C143.286 43.8625 135.156 43.8625 130.141 38.848L130.141 38.8475L108.185 16.8909C108.22 17.0437 108.253 17.1969 108.284 17.3505ZM80.5193 18.3535L80.8303 18.0433C80.1098 21.9805 81.2476 26.1911 84.2733 29.2169L84.2737 29.2174L91.7167 36.6605L91.5361 36.8407L84.0929 29.3972L84.0924 29.3967C81.0958 26.3998 79.9146 22.2657 80.5193 18.3535ZM78.1015 20.7649L39.8746 58.8911C36.0974 62.6583 35.8532 68.6527 39.137 72.7369L39.1372 72.7372L39.1375 72.7376L39.1401 72.7408C39.379 73.0392 39.6375 73.3279 39.9158 73.6055L78.1015 111.691C78.2012 107.975 79.6541 104.291 82.4856 101.46L89.9311 94.0141L72.997 77.1246C66.9629 71.1063 66.9629 61.3491 72.997 55.3309L89.9311 38.4414L82.4856 30.9957C79.6541 28.1642 78.2012 24.4809 78.1015 20.7649ZM94.9226 92.2282L111.841 75.3091L111.842 75.3085C116.857 70.2934 116.857 62.1621 111.842 57.147L111.841 57.1465L94.9226 40.2273L95.1032 40.0472L112.022 56.9666L112.023 56.9671C117.137 62.0818 117.137 70.3738 112.023 75.4884L112.022 75.4889L95.1032 92.4083L94.9226 92.2282ZM91.5361 95.6148L84.0929 103.058L84.0924 103.059C81.0958 106.056 79.9146 110.19 80.5193 114.102L80.8303 114.412C80.1098 110.475 81.2476 106.264 84.2733 103.239L84.2737 103.238L91.7167 95.795L91.5361 95.6148ZM93.3217 97.3957L85.8805 104.837C81.8659 108.852 81.9001 115.46 85.9495 119.51C89.0938 122.654 93.7793 123.376 97.5941 121.658C98.688 121.166 99.7104 120.473 100.604 119.579L101.29 118.893C104.78 114.807 104.606 108.65 100.752 104.806L93.3217 97.3957ZM93.3176 90.6274L76.3887 73.7431C72.2271 69.5925 72.2271 62.863 76.3887 58.7123L93.3176 41.8281L110.235 58.7455C114.366 62.8771 114.366 69.5784 110.235 73.7101L93.3176 90.6274Z" fill="url(#paint1_linear_1_106)"/>
<path fill-rule="evenodd" clip-rule="evenodd" d="M185.209 5.10889C181.224 5.04527 177.218 6.53058 174.177 9.56353L82.2405 101.25C76.2862 107.188 76.2805 116.814 82.2331 122.751C88.1857 128.687 97.838 128.681 103.792 122.743L185.189 41.5682L202.378 58.7123C206.54 62.863 206.54 69.5925 202.378 73.7431L174.623 101.425C168.681 107.351 168.731 116.981 174.657 122.892C180.584 128.803 190.24 128.853 196.182 122.926L242.243 76.9869C242.647 76.584 243.024 76.1633 243.373 75.7271C248.154 69.7789 247.825 61.0359 242.284 55.5096L196.182 9.52905C193.159 6.51398 189.175 5.04562 185.209 5.10889ZM239.629 72.7376L239.627 72.7408C239.388 73.0392 239.129 73.3279 238.851 73.6055L192.79 119.545C188.738 123.587 182.119 123.57 178.049 119.511C173.979 115.451 173.962 108.849 178.015 104.806L205.77 77.1246C211.804 71.1063 211.804 61.3491 205.77 55.3309L188.58 38.1862L195.729 31.0567C198.708 28.0858 200.198 24.1917 200.198 20.2984L238.892 58.8911C242.67 62.6583 242.914 68.6527 239.63 72.7369L239.63 72.7372L239.629 72.7376ZM170.19 20.305L85.632 104.633C81.5486 108.705 81.5478 115.302 85.6248 119.368C89.7018 123.434 96.3172 123.433 100.401 119.361L181.797 38.1857L174.623 31.0305C171.656 28.0708 170.183 24.1875 170.19 20.305ZM185.189 34.8038L178.015 27.649C173.962 23.6065 173.979 17.0042 178.049 12.9446C180.024 10.9752 182.598 9.95736 185.188 9.89279C187.785 9.94824 190.364 10.9637 192.345 12.9386C196.422 17.0046 196.421 23.602 192.337 27.6744L185.189 34.8038Z" fill="url(#paint2_linear_1_106)"/>
<path d="M176.051 11.0977L175.786 10.8326V10.8326L176.051 11.0977ZM193.835 11.6122C198.609 16.3857 198.669 24.1869 193.904 28.9517L194.435 29.482C199.497 24.4192 199.427 16.1431 194.366 11.0819L193.835 11.6122ZM129.695 39.293C134.956 44.5542 143.486 44.5542 148.747 39.293L148.217 38.7627C143.249 43.731 135.194 43.731 130.226 38.7627L129.695 39.293ZM148.747 93.1625C143.486 87.9013 134.956 87.9013 129.695 93.1625L130.226 93.6928C135.194 88.7245 143.249 88.7245 148.217 93.6928L148.747 93.1625ZM193.904 103.504C198.669 108.269 198.609 116.07 193.835 120.843L194.366 121.374C199.427 116.312 199.497 108.036 194.435 102.973L193.904 103.504ZM176.316 11.3629C181.182 6.49678 189.145 6.56053 194.016 11.4319L194.546 10.9015C189.387 5.74254 180.95 5.66835 175.786 10.8326L176.316 11.3629ZM148.567 39.1126L176.316 11.3629L175.786 10.8326L148.037 38.5823L148.567 39.1126ZM112.107 75.5737C117.269 70.4121 117.269 62.0434 112.107 56.8818L111.577 57.4121C116.445 62.2809 116.445 70.1746 111.577 75.0434L112.107 75.5737ZM194.016 121.024C189.145 125.895 181.182 125.959 176.316 121.093L175.786 121.623C180.95 126.787 189.387 126.713 194.546 121.554L194.016 121.024ZM166.336 56.8818C161.174 62.0434 161.174 70.4121 166.336 75.5737L166.866 75.0434C161.997 70.1746 161.997 62.2809 166.866 57.4121L166.336 56.8818ZM194.169 29.2168L194.7 29.7472L193.657 28.669L194.169 29.2168ZM166.42 56.9666L166.951 57.4969L166.42 56.9666ZM194.101 11.3471L193.611 11.9156L194.631 10.8168L194.101 11.3471ZM148.482 39.0278L147.928 38.5232L149.013 39.5582L148.482 39.0278ZM129.96 39.0278L129.472 39.5967L130.491 38.4975L129.96 39.0278ZM102.212 11.2781L102.742 10.7478V10.7478L102.212 11.2781ZM84.3423 11.3471L83.8119 10.8168V10.8168L84.3423 11.3471ZM112.022 56.9666L112.553 56.4363L112.022 56.9666ZM112.022 75.4889L112.553 76.0192L112.022 75.4889ZM84.3423 121.108L83.8119 121.639L84.3423 121.108ZM102.212 121.177L102.742 121.708V121.708L102.212 121.177ZM129.96 93.4277L130.491 93.958L129.451 92.8774L129.96 93.4277ZM148.482 93.4277L149.013 92.8974L147.91 93.9129L148.482 93.4277ZM176.231 121.177L176.762 120.647L176.231 121.177ZM194.101 121.108L194.631 121.639L193.591 120.558L194.101 121.108ZM194.169 103.239L193.682 103.809L194.7 102.708L194.169 103.239ZM194.281 11.1667L194.811 10.6364L193.708 11.6506L194.281 11.1667ZM148.302 38.8475L148.832 39.3778L147.792 38.2972L148.302 38.8475ZM130.141 38.8475L130.671 38.3171V38.3171L130.141 38.8475ZM102.392 11.0977L102.922 10.5674L102.392 11.0977ZM84.1619 11.1667L84.6922 11.697L84.1619 11.1667ZM84.0929 29.3972L84.6233 28.8669L84.0929 29.3972ZM111.842 57.147L111.354 57.7164L112.372 56.6166L111.842 57.147ZM111.842 75.3085L112.372 75.8389L111.337 74.7538L111.842 75.3085ZM84.0929 103.058L84.6233 103.589L84.0929 103.058ZM102.392 121.358L101.862 120.827L102.392 121.358ZM130.141 93.608L130.671 94.1384L130.141 93.608ZM176.051 121.358L175.558 121.923L176.581 120.827L176.051 121.358ZM194.281 121.289L193.734 120.775L194.811 121.819L194.281 121.289ZM194.35 103.058L194.88 102.528L194.35 103.058ZM166.601 75.3085L167.131 74.7782L166.029 75.7938L166.601 75.3085ZM166.601 57.147L166.049 56.6394L167.131 57.6773L166.601 57.147ZM194.35 29.3972L194.88 29.9275L194.35 29.3972ZM164.813 55.3681L165.344 55.8984L164.813 55.3681ZM192.562 27.6184L192.032 27.088L192.562 27.6184ZM164.813 77.0874L165.344 76.5571L164.813 77.0874ZM192.562 104.837L193.092 104.307L192.562 104.837ZM192.493 119.51L193.024 120.04L192.493 119.51ZM177.838 119.579L178.369 119.049L177.838 119.579ZM150.09 91.8292L150.62 91.2989L150.09 91.8292ZM128.353 91.8292L128.883 92.3595L128.353 91.8292ZM108.569 111.614L107.819 111.639L107.877 113.367L109.099 112.144L108.569 111.614ZM104.144 101.425L103.614 101.956V101.956L104.144 101.425ZM96.7082 94.0091L96.1779 93.4788L95.6469 94.0098L96.1786 94.5402L96.7082 94.0091ZM113.629 77.0874L113.099 76.5571L113.629 77.0874ZM113.629 55.3681L113.099 55.8984L113.629 55.3681ZM96.7082 38.4464L96.1786 37.9154L95.6469 38.4457L96.1779 38.9767L96.7082 38.4464ZM104.144 31.0305L104.673 31.5615H104.673L104.144 31.0305ZM108.569 20.8416L109.099 20.3113L107.877 19.089L107.819 20.8166L108.569 20.8416ZM128.353 40.6264L127.823 41.1567L128.353 40.6264ZM150.09 40.6264L150.62 41.1567L150.09 40.6264ZM177.838 12.8766L178.369 13.407L177.838 12.8766ZM192.493 12.9456L193.024 12.4153V12.4153L192.493 12.9456ZM100.604 12.8766L101.135 12.3463V12.3463L100.604 12.8766ZM97.5847 10.7931L97.8919 10.1089L97.8893 10.1077L97.5847 10.7931ZM101.29 13.5624L101.86 13.0752L101.841 13.0529L101.82 13.032L101.29 13.5624ZM100.752 27.649L101.282 28.18L100.752 27.649ZM93.3217 35.0598L92.7914 35.5901L93.321 36.1197L93.8513 35.5908L93.3217 35.0598ZM85.8805 27.6184L86.4109 27.088L85.8805 27.6184ZM85.9495 12.9456L85.4191 12.4153V12.4153L85.9495 12.9456ZM93.3388 9.88953L93.3404 9.13953L93.3386 9.13953L93.3388 9.88953ZM108.284 17.3505L107.548 17.497L107.593 17.72L107.753 17.8809L108.284 17.3505ZM129.96 39.0274L129.43 39.5577L129.45 39.5777L129.471 39.5962L129.96 39.0274ZM148.483 39.0274L147.952 38.497L147.94 38.5096L147.928 38.5227L148.483 39.0274ZM176.232 11.2776L175.701 10.7473L175.689 10.7592L175.678 10.7715L176.232 11.2776ZM194.1 11.3466L193.57 11.877L193.59 11.8968L193.611 11.9151L194.1 11.3466ZM194.169 29.2174L193.657 28.6695L193.648 28.6781L193.639 28.687L194.169 29.2174ZM166.42 56.9671L165.91 56.4168L165.9 56.4266L165.89 56.4368L166.42 56.9671ZM166.42 75.4884L165.89 76.0187L165.91 76.0395L165.933 76.0585L166.42 75.4884ZM194.169 103.238L193.639 103.768L193.659 103.789L193.682 103.808L194.169 103.238ZM194.1 121.109L193.59 120.559L193.58 120.568L193.57 120.579L194.1 121.109ZM176.232 121.178L175.66 121.663L175.68 121.687L175.701 121.708L176.232 121.178ZM148.483 93.4282L147.911 93.9134L147.931 93.9368L147.952 93.9585L148.483 93.4282ZM129.96 93.4282L129.45 92.8779L129.44 92.8877L129.43 92.8979L129.96 93.4282ZM108.284 115.105L107.753 114.575L107.593 114.736L107.548 114.959L108.284 115.105ZM108.185 115.565L107.454 115.396L106.864 117.946L108.715 116.095L108.185 115.565ZM130.141 93.6076L129.611 93.0772L129.6 93.0884L129.589 93.1L130.141 93.6076ZM148.301 93.6076L147.771 94.1379L147.792 94.1586L147.814 94.1777L148.301 93.6076ZM176.05 121.357L175.52 121.888L175.538 121.906L175.558 121.923L176.05 121.357ZM194.281 121.288L193.751 120.758L193.743 120.766L193.735 120.775L194.281 121.288ZM194.35 103.059L193.778 103.544L193.798 103.567L193.82 103.589L194.35 103.059ZM166.601 75.309L166.029 75.7943L166.049 75.8177L166.071 75.8394L166.601 75.309ZM166.601 57.1465L166.071 56.6162L166.06 56.6273L166.049 56.639L166.601 57.1465ZM194.35 29.3967L193.82 28.8665L193.808 28.8783L193.797 28.8906L194.35 29.3967ZM194.281 11.1672L193.708 11.6511L193.729 11.6752L193.751 11.6975L194.281 11.1672ZM148.301 38.848L147.792 38.2977L147.781 38.3075L147.771 38.3176L148.301 38.848ZM130.141 38.848L129.568 39.3319L129.589 39.356L129.611 39.3783L130.141 38.848ZM108.185 16.8909L108.715 16.3606L106.864 14.5095L107.454 17.06L108.185 16.8909ZM80.5193 18.3535L79.9897 17.8225L79.8157 17.996L79.7781 18.2389L80.5193 18.3535ZM80.8303 18.0433L81.568 18.1784L82.0001 15.8174L80.3006 17.5123L80.8303 18.0433ZM84.2737 29.2174L83.705 29.7062L83.7234 29.7277L83.7434 29.7477L84.2737 29.2174ZM91.7167 36.6605L92.2463 37.1916L92.7781 36.6612L92.247 36.1302L91.7167 36.6605ZM91.5361 36.8407L91.0058 37.371L91.5354 37.9006L92.0657 37.3717L91.5361 36.8407ZM84.0924 29.3967L83.562 29.927L83.5824 29.9474L83.6042 29.9661L84.0924 29.3967ZM39.8746 58.8911L40.4042 59.4221L39.8746 58.8911ZM78.1015 20.7649L78.8512 20.7448L78.8045 19.0045L77.5719 20.2339L78.1015 20.7649ZM39.137 72.7369L39.7251 72.2714L39.7215 72.267L39.137 72.7369ZM39.1372 72.7372L38.5491 73.2028L38.5544 73.2092L39.1372 72.7372ZM39.1375 72.7376L39.7222 72.2679L39.7204 72.2656L39.1375 72.7376ZM39.1401 72.7408L39.7255 72.272L39.7248 72.271L39.1401 72.7408ZM39.9158 73.6055L40.4454 73.0744H40.4454L39.9158 73.6055ZM78.1015 111.691L77.5719 112.222L78.8045 113.451L78.8512 111.711L78.1015 111.691ZM82.4856 101.46L81.9553 100.929L82.4856 101.46ZM89.9311 94.0141L90.4614 94.5444L90.9925 94.0134L90.4607 93.483L89.9311 94.0141ZM72.997 77.1246L72.4674 77.6556L72.997 77.1246ZM72.997 55.3309L72.4674 54.7998H72.4674L72.997 55.3309ZM89.9311 38.4414L90.4607 38.9725L90.9924 38.4422L90.4614 37.9111L89.9311 38.4414ZM82.4856 30.9957L81.9553 31.5261L82.4856 30.9957ZM100.129 6.70241L100.463 6.03074V6.03074L100.129 6.70241ZM82.585 9.52905L83.1146 10.0601V10.0601L82.585 9.52905ZM36.4829 55.5096L35.9533 54.9786L36.4829 55.5096ZM35.3939 75.7271L35.9792 75.2582L35.9785 75.2572L35.3939 75.7271ZM36.5241 76.9869L35.9944 77.5179L35.9944 77.5179L36.5241 76.9869ZM82.585 122.926L82.0553 123.457L82.585 122.926ZM93.3116 127.349L93.3134 126.599H93.3116L93.3116 127.349ZM100.138 125.748L99.8042 125.077L99.8017 125.078L100.138 125.748ZM104.11 122.892L103.58 122.361L104.11 122.892ZM104.814 122.142L104.283 121.611L104.266 121.629L104.25 121.647L104.814 122.142ZM131.748 95.2066L131.218 94.6762L131.748 95.2066ZM146.695 95.2066L147.225 94.6762L146.695 95.2066ZM174.444 122.956L174.974 122.426L174.444 122.956ZM195.888 122.887L196.418 123.418L195.888 122.887ZM195.957 101.46L195.427 101.99L195.957 101.46ZM168.208 73.7101L167.678 74.2404L168.208 73.7101ZM168.208 58.7455L167.678 58.2152L168.208 58.7455ZM195.957 30.9957L195.427 30.4654L195.957 30.9957ZM195.888 9.56823L196.418 9.03791V9.03791L195.888 9.56823ZM174.444 9.49926L174.974 10.0296L174.444 9.49926ZM146.695 37.249L147.225 37.7793L146.695 37.249ZM131.748 37.249L131.218 37.7793L131.748 37.249ZM104.814 10.3142L104.25 10.8087L104.266 10.8272L104.284 10.8446L104.814 10.3142ZM104.11 9.56309L103.58 10.0941V10.0941L104.11 9.56309ZM94.9226 92.2282L94.3923 91.6979L93.8613 92.2289L94.393 92.7592L94.9226 92.2282ZM111.841 75.3091L111.337 74.7543L111.324 74.7662L111.311 74.7787L111.841 75.3091ZM111.841 57.1465L111.311 57.6768L111.331 57.6972L111.353 57.7159L111.841 57.1465ZM94.9226 40.2273L94.393 39.6963L93.8613 40.2266L94.3923 40.7576L94.9226 40.2273ZM95.1032 40.0471L95.6336 39.5168L95.1039 38.9872L94.5736 39.5161L95.1032 40.0471ZM112.023 56.9671L111.451 57.4523L111.471 57.4757L111.492 57.4974L112.023 56.9671ZM112.023 75.4884L111.492 74.9581L111.478 74.972L111.465 74.9866L112.023 75.4884ZM95.1032 92.4083L94.5736 92.9394L95.1039 93.4683L95.6336 92.9387L95.1032 92.4083ZM91.5361 95.6148L92.0657 95.0838L91.5354 94.5549L91.0058 95.0845L91.5361 95.6148ZM84.0924 103.059L83.5881 102.504L83.5748 102.516L83.562 102.528L84.0924 103.059ZM80.5193 114.102L79.7781 114.217L79.8156 114.459L79.9897 114.633L80.5193 114.102ZM80.8303 114.412L80.3006 114.943L82 116.638L81.568 114.277L80.8303 114.412ZM84.2737 103.238L83.7434 102.708L83.7295 102.722L83.7164 102.736L84.2737 103.238ZM91.7167 95.795L92.2471 96.3253L92.7781 95.7943L92.2463 95.2639L91.7167 95.795ZM93.3217 97.3957L93.8513 96.8647L93.321 96.3358L92.7914 96.8654L93.3217 97.3957ZM85.8805 104.837L85.3502 104.307L85.8805 104.837ZM85.9495 119.51L86.4798 118.98L85.9495 119.51ZM97.5941 121.658L97.2862 120.974L97.5941 121.658ZM100.604 119.579L101.135 120.109L100.604 119.579ZM101.29 118.893L101.82 119.424L101.841 119.403L101.86 119.381L101.29 118.893ZM100.752 104.806L100.222 105.338L100.752 104.806ZM93.3176 90.6274L92.788 91.1585L93.3183 91.6874L93.848 91.1578L93.3176 90.6274ZM76.3887 73.7431L76.9183 73.2121H76.9183L76.3887 73.7431ZM76.3887 58.7123L75.8591 58.1813L76.3887 58.7123ZM93.3176 41.8281L93.8479 41.2977L93.3183 40.7681L92.788 41.297L93.3176 41.8281ZM110.235 58.7455L110.765 58.2152L110.235 58.7455ZM110.235 73.7101L110.765 74.2404L110.235 73.7101ZM239.627 72.7408L239.042 72.271L239.041 72.272L239.627 72.7408ZM239.629 72.7376L239.05 72.2611L239.045 72.2679L239.629 72.7376ZM238.851 73.6055L239.381 74.1365H239.381L238.851 73.6055ZM192.79 119.545L192.261 119.014L192.79 119.545ZM178.049 119.511L177.519 120.042L178.049 119.511ZM178.015 104.806L177.485 104.275L178.015 104.806ZM205.77 77.1246L205.24 76.5936L205.77 77.1246ZM205.77 55.3309L206.3 54.7998V54.7998L205.77 55.3309ZM188.58 38.1862L188.05 37.6552L187.518 38.1862L188.05 38.7173L188.58 38.1862ZM195.729 31.0567L196.259 31.5878L195.729 31.0567ZM200.198 20.2984L200.727 19.7674L199.448 18.491L199.448 20.2985L200.198 20.2984ZM238.892 58.8911L238.363 59.4221L238.892 58.8911ZM239.63 72.7369L239.045 72.2669L239.037 72.2779L239.63 72.7369ZM239.63 72.7372L240.209 73.2137L240.216 73.2051L240.223 73.1963L239.63 72.7372ZM85.632 104.633L86.1616 105.164V105.164L85.632 104.633ZM170.189 20.305L170.939 20.3064L170.943 18.4947L169.66 19.774L170.189 20.305ZM85.6248 119.368L85.0952 119.899L85.6248 119.368ZM100.401 119.361L100.93 119.892L100.401 119.361ZM181.797 38.1857L182.327 38.7168L182.859 38.1857L182.327 37.6547L181.797 38.1857ZM174.623 31.0305L174.094 31.5615L174.623 31.0305ZM185.209 5.10889L185.197 5.8588L185.209 5.85899L185.221 5.8588L185.209 5.10889ZM174.177 9.56353L174.707 10.0946V10.0946L174.177 9.56353ZM82.2405 101.25L81.7109 100.719L82.2405 101.25ZM82.2331 122.751L81.7035 123.282V123.282L82.2331 122.751ZM103.792 122.743L103.263 122.212L103.792 122.743ZM185.189 41.5682L185.718 41.0372L185.189 40.509L184.659 41.0372L185.189 41.5682ZM202.378 58.7123L202.908 58.1813L202.378 58.7123ZM202.378 73.7431L201.849 73.2121L202.378 73.7431ZM174.623 101.425L175.153 101.956V101.956L174.623 101.425ZM174.657 122.892L174.128 123.423L174.657 122.892ZM196.182 122.926L195.652 122.395L196.182 122.926ZM242.243 76.9869L242.773 77.5179L242.773 77.5179L242.243 76.9869ZM243.373 75.7271L242.788 75.2572L242.788 75.2582L243.373 75.7271ZM242.284 55.5096L242.814 54.9786L242.284 55.5096ZM196.182 9.52905L195.652 10.0601V10.0601L196.182 9.52905ZM178.015 27.649L177.485 28.18L178.015 27.649ZM185.189 34.8038L184.659 35.3348L185.189 35.863L185.718 35.3348L185.189 34.8038ZM178.049 12.9446L178.579 13.4756V13.4756L178.049 12.9446ZM185.188 9.89279L185.204 9.14296L185.187 9.14259L185.169 9.14302L185.188 9.89279ZM192.345 12.9386L191.815 13.4697H191.815L192.345 12.9386ZM192.337 27.6744L191.808 27.1433L192.337 27.6744ZM193.639 28.6865L165.89 56.4363L166.951 57.4969L194.7 29.7472L193.639 28.6865ZM176.762 11.8084C181.377 7.19273 188.941 7.24778 193.57 11.8774L194.631 10.8168C189.426 5.61173 180.913 5.53594 175.701 10.7478L176.762 11.8084ZM149.013 39.5582L176.762 11.8084L175.701 10.7478L147.952 38.4975L149.013 39.5582ZM101.681 11.8084L129.43 39.5582L130.491 38.4975L102.742 10.7478L101.681 11.8084ZM84.8726 11.8774C89.5021 7.24777 97.0656 7.19274 101.681 11.8084L102.742 10.7478C97.5302 5.53594 89.0168 5.61172 83.8119 10.8168L84.8726 11.8774ZM84.8036 28.6865C80.188 24.0708 80.2431 16.507 84.8726 11.8774L83.8119 10.8168C78.607 16.0218 78.5313 24.5353 83.743 29.7472L84.8036 28.6865ZM112.553 56.4363L84.8036 28.6865L83.743 29.7472L111.492 57.4969L112.553 56.4363ZM112.553 76.0192C117.96 70.6116 117.96 61.844 112.553 56.4363L111.492 57.4969C116.314 62.3188 116.314 70.1367 111.492 74.9586L112.553 76.0192ZM84.8036 103.769L112.553 76.0192L111.492 74.9586L83.743 102.708L84.8036 103.769ZM84.8726 120.578C80.2431 115.948 80.188 108.385 84.8036 103.769L83.743 102.708C78.5312 107.92 78.607 116.434 83.8119 121.639L84.8726 120.578ZM101.681 120.647C97.0656 125.263 89.5021 125.208 84.8726 120.578L83.8119 121.639C89.0168 126.844 97.5302 126.92 102.742 121.708L101.681 120.647ZM129.43 92.8973L101.681 120.647L102.742 121.708L130.491 93.958L129.43 92.8973ZM176.762 120.647L149.013 92.8974L147.952 93.958L175.701 121.708L176.762 120.647ZM193.57 120.578C188.941 125.208 181.377 125.263 176.762 120.647L175.701 121.708C180.913 126.92 189.426 126.844 194.631 121.639L193.57 120.578ZM165.89 76.0192L193.639 103.769L194.7 102.708L166.951 74.9586L165.89 76.0192ZM165.89 56.4363C160.483 61.844 160.483 70.6115 165.89 76.0192L166.951 74.9586C162.129 70.1367 162.129 62.3188 166.951 57.4969L165.89 56.4363ZM129.611 39.3778C134.918 44.6859 143.524 44.6859 148.832 39.3778L147.772 38.3171C143.049 43.0394 135.393 43.0394 130.671 38.3171L129.611 39.3778ZM101.862 11.6281L129.611 39.3778L130.671 38.3171L102.922 10.5674L101.862 11.6281ZM84.6922 11.697C89.4196 6.96953 97.1447 6.911 101.862 11.6281L102.922 10.5674C97.6091 5.25414 88.9343 5.33354 83.6316 10.6364L84.6922 11.697ZM84.6233 28.8669C79.9063 24.1498 79.9648 16.4245 84.6922 11.697L83.6316 10.6364C78.3289 15.9392 78.2495 24.6143 83.5626 29.9276L84.6233 28.8669ZM112.372 56.6166L84.6233 28.8669L83.5626 29.9276L111.312 57.6773L112.372 56.6166ZM84.6233 103.589L112.372 75.8389L111.312 74.7782L83.5626 102.528L84.6233 103.589ZM84.6922 120.758C79.9648 116.031 79.9063 108.306 84.6233 103.589L83.5626 102.528C78.2495 107.841 78.3289 116.516 83.6315 121.819L84.6922 120.758ZM101.862 120.827C97.1446 125.544 89.4196 125.486 84.6922 120.758L83.6315 121.819C88.9342 127.122 97.6091 127.201 102.922 121.888L101.862 120.827ZM129.611 93.0777L101.862 120.827L102.922 121.888L130.671 94.1384L129.611 93.0777ZM148.832 93.0777C143.524 87.7697 134.918 87.7696 129.611 93.0777L130.671 94.1384C135.393 89.4161 143.049 89.4161 147.772 94.1384L148.832 93.0777ZM176.581 120.827L148.832 93.0777L147.772 94.1384L175.521 121.888L176.581 120.827ZM193.82 103.589C198.536 108.306 198.478 116.031 193.751 120.758L194.811 121.819C200.114 116.516 200.193 107.841 194.88 102.528L193.82 103.589ZM166.071 75.8389L193.82 103.589L194.88 102.528L167.131 74.7782L166.071 75.8389ZM193.82 28.8669L166.071 56.6166L167.131 57.6773L194.88 29.9275L193.82 28.8669ZM193.751 11.697C198.478 16.4246 198.536 24.1498 193.82 28.8669L194.88 29.9275C200.193 24.6143 200.114 15.9392 194.811 10.6364L193.751 11.697ZM165.344 55.8984L193.092 28.1487L192.032 27.088L164.283 54.8378L165.344 55.8984ZM165.344 76.5571C159.638 70.8517 159.638 61.6039 165.344 55.8984L164.283 54.8378C157.992 61.129 157.992 71.3265 164.283 77.6177L165.344 76.5571ZM193.092 104.307L165.344 76.5571L164.283 77.6177L192.032 105.367L193.092 104.307ZM193.024 120.04C197.361 115.703 197.405 108.619 193.092 104.307L192.032 105.367C195.749 109.084 195.724 115.218 191.963 118.98L193.024 120.04ZM177.308 120.109C181.617 124.418 188.689 124.374 193.024 120.04L191.963 118.98C188.205 122.738 182.082 122.762 178.369 119.049L177.308 120.109ZM149.559 92.3595L177.308 120.109L178.369 119.049L150.62 91.2989L149.559 92.3595ZM128.883 92.3595C134.592 86.6506 143.85 86.6506 149.559 92.3595L150.62 91.2989C144.325 85.0042 134.117 85.0042 127.823 91.2989L128.883 92.3595ZM109.099 112.144L128.883 92.3595L127.823 91.2989L108.039 111.084L109.099 112.144ZM109.319 111.589C109.189 107.705 107.645 103.858 104.673 100.894L103.614 101.956C106.304 104.639 107.702 108.119 107.819 111.639L109.319 111.589ZM104.673 100.894L97.2379 93.4781L96.1786 94.5402L103.614 101.956L104.673 100.894ZM113.099 76.5571L96.1779 93.4788L97.2386 94.5394L114.16 77.6178L113.099 76.5571ZM113.099 55.8984C118.804 61.6039 118.804 70.8517 113.099 76.5571L114.16 77.6178C120.451 71.3265 120.451 61.129 114.16 54.8378L113.099 55.8984ZM96.1779 38.9767L113.099 55.8984L114.16 54.8378L97.2386 37.9161L96.1779 38.9767ZM97.2378 38.9774L104.673 31.5615L103.614 30.4994L96.1786 37.9154L97.2378 38.9774ZM104.673 31.5615C107.645 28.5979 109.189 24.7506 109.319 20.8666L107.819 20.8166C107.702 24.3362 106.304 27.8165 103.614 30.4994L104.673 31.5615ZM128.883 40.096L109.099 20.3113L108.039 21.3719L127.823 41.1567L128.883 40.096ZM149.559 40.096C143.85 45.8049 134.592 45.8049 128.883 40.096L127.823 41.1567C134.117 47.4514 144.325 47.4514 150.62 41.1567L149.559 40.096ZM177.308 12.3463L149.559 40.096L150.62 41.1567L178.369 13.407L177.308 12.3463ZM193.024 12.4153C188.689 8.0811 181.617 8.03748 177.308 12.3463L178.369 13.407C182.082 9.69359 188.205 9.71784 191.963 13.4759L193.024 12.4153ZM193.092 28.1487C197.405 23.8363 197.361 16.7528 193.024 12.4153L191.963 13.4759C195.724 17.2373 195.749 23.3711 192.032 27.088L193.092 28.1487ZM101.135 12.3463C100.172 11.3841 99.0707 10.6381 97.8919 10.1089L97.2775 11.4773C98.2937 11.9335 99.2433 12.5763 100.074 13.407L101.135 12.3463ZM101.82 13.032L101.135 12.3463L100.074 13.407L100.76 14.0927L101.82 13.032ZM100.72 14.0495C103.96 17.8425 103.794 23.5558 100.222 27.118L101.282 28.18C105.417 24.0555 105.601 17.4543 101.86 13.0752L100.72 14.0495ZM100.222 27.118L92.7921 34.5287L93.8513 35.5908L101.282 28.18L100.222 27.118ZM85.3502 28.1487L92.7914 35.5901L93.852 34.5294L86.4109 27.088L85.3502 28.1487ZM85.4191 12.4153C81.0818 16.7528 81.0379 23.8363 85.3502 28.1487L86.4109 27.088C82.694 23.3711 82.7185 17.2373 86.4798 13.4759L85.4191 12.4153ZM93.3386 9.13953C90.476 9.14011 87.6014 10.233 85.4191 12.4153L86.4798 13.4759C88.3684 11.5873 90.8561 10.64 93.3389 10.6395L93.3386 9.13953ZM93.3371 10.6395C94.6832 10.6425 96.0292 10.9225 97.2801 11.4784L97.8893 10.1077C96.4444 9.46552 94.8917 9.14292 93.3404 9.13953L93.3371 10.6395ZM107.753 17.8809L129.43 39.5577L130.49 38.497L108.814 16.8202L107.753 17.8809ZM129.471 39.5962L129.472 39.5967L130.449 38.459L130.449 38.4585L129.471 39.5962ZM149.037 39.5325L149.038 39.532L147.928 38.5227L147.928 38.5232L149.037 39.5325ZM149.013 39.5577L176.762 11.8084L175.701 10.7478L147.952 38.497L149.013 39.5577ZM176.785 11.7842L176.785 11.7838L175.678 10.7715L175.678 10.772L176.785 11.7842ZM176.762 11.808C181.377 7.19291 188.94 7.24795 193.57 11.877L194.63 10.8163C189.425 5.61192 180.913 5.53613 175.701 10.7473L176.762 11.808ZM193.611 11.9151L193.611 11.9156L194.59 10.7786L194.589 10.7781L193.611 11.9151ZM193.657 28.669L193.657 28.6695L194.681 29.7652L194.682 29.7647L193.657 28.669ZM193.639 28.687L165.89 56.4363L166.951 57.4969L194.699 29.7477L193.639 28.687ZM165.911 56.4163L165.91 56.4168L166.93 57.5174L166.93 57.5169L165.911 56.4163ZM165.89 56.4368C160.483 61.8444 160.483 70.6112 165.89 76.0187L166.95 74.9581C162.129 70.1364 162.129 62.3192 166.95 57.4974L165.89 56.4368ZM165.933 76.0585L165.933 76.059L166.908 74.9188L166.907 74.9183L165.933 76.0585ZM165.89 76.0192L193.639 103.768L194.699 102.708L166.951 74.9586L165.89 76.0192ZM193.682 103.808L193.682 103.809L194.657 102.669L194.656 102.668L193.682 103.808ZM193.591 120.558L193.59 120.559L194.61 121.659L194.61 121.659L193.591 120.558ZM193.57 120.579C188.94 125.208 181.377 125.263 176.762 120.648L175.701 121.708C180.913 126.919 189.425 126.844 194.63 121.639L193.57 120.579ZM176.804 120.693L176.803 120.692L175.659 121.663L175.66 121.663L176.804 120.693ZM176.762 120.647L149.013 92.8979L147.952 93.9585L175.701 121.708L176.762 120.647ZM149.055 92.943L149.054 92.9425L147.91 93.9129L147.911 93.9134L149.055 92.943ZM129.451 92.8774L129.45 92.8779L130.47 93.9785L130.47 93.978L129.451 92.8774ZM129.43 92.8979L107.753 114.575L108.814 115.635L130.49 93.9585L129.43 92.8979ZM108.916 115.734C108.953 115.573 108.987 115.413 109.019 115.251L107.548 114.959C107.519 115.105 107.488 115.25 107.454 115.396L108.916 115.734ZM129.611 93.0777L107.654 115.034L108.715 116.095L130.671 94.1384L129.611 93.0777ZM129.589 93.1L129.589 93.1005L130.693 94.1156L130.693 94.1151L129.589 93.1ZM148.832 93.0772C143.524 87.7698 134.919 87.7698 129.611 93.0772L130.672 94.1379C135.394 89.4163 143.049 89.4163 147.771 94.1379L148.832 93.0772ZM148.789 93.038L148.789 93.0375L147.814 94.1777L147.815 94.1782L148.789 93.038ZM176.581 120.827L148.832 93.0777L147.772 94.1384L175.52 121.888L176.581 120.827ZM176.543 120.792L176.543 120.792L175.558 121.923L175.558 121.923L176.543 120.792ZM193.735 120.775L193.734 120.775L194.827 121.802L194.828 121.802L193.735 120.775ZM193.82 103.589C198.536 108.306 198.478 116.031 193.751 120.758L194.812 121.819C200.114 116.516 200.193 107.842 194.881 102.528L193.82 103.589ZM193.778 103.544L193.778 103.544L194.922 102.574L194.922 102.573L193.778 103.544ZM166.071 75.8394L193.82 103.589L194.88 102.528L167.132 74.7787L166.071 75.8394ZM166.029 75.7938L166.029 75.7943L167.173 74.8238L167.173 74.8233L166.029 75.7938ZM166.049 56.639L166.049 56.6394L167.153 57.6545L167.153 57.654L166.049 56.639ZM193.82 28.8669L166.071 56.6162L167.132 57.6768L194.88 29.9275L193.82 28.8669ZM193.797 28.8906L193.796 28.8911L194.903 29.9033L194.904 29.9029L193.797 28.8906ZM193.751 11.6975C198.478 16.4249 198.536 24.1495 193.82 28.8665L194.881 29.927C200.193 24.6139 200.114 15.9396 194.812 10.6369L193.751 11.6975ZM193.708 11.6506L193.708 11.6511L194.854 10.6834L194.854 10.6828L193.708 11.6506ZM148.811 39.3983L148.812 39.3977L147.792 38.2972L147.792 38.2977L148.811 39.3983ZM129.611 39.3783C134.919 44.6857 143.524 44.6857 148.832 39.3783L147.771 38.3176C143.049 43.0393 135.394 43.0393 130.672 38.3176L129.611 39.3783ZM129.568 39.3313L129.568 39.3319L130.714 38.3641L130.714 38.3636L129.568 39.3313ZM107.655 17.4212L129.611 39.3778L130.671 38.3171L108.715 16.3606L107.655 17.4212ZM109.019 17.2041C108.987 17.043 108.953 16.8822 108.916 16.7219L107.454 17.06C107.488 17.2052 107.519 17.3509 107.548 17.497L109.019 17.2041ZM81.0489 18.8845L81.3599 18.5744L80.3006 17.5123L79.9897 17.8225L81.0489 18.8845ZM84.8036 28.6865C81.9623 25.8451 80.8893 21.8875 81.568 18.1784L80.0925 17.9083C79.3303 22.0735 80.533 26.5371 83.743 29.7472L84.8036 28.6865ZM84.8425 28.7285L84.8421 28.728L83.7045 29.7057L83.705 29.7062L84.8425 28.7285ZM92.247 36.1302L84.8041 28.687L83.7434 29.7477L91.1864 37.1909L92.247 36.1302ZM91.1871 36.1295L91.0065 36.3096L92.0657 37.3717L92.2463 37.1916L91.1871 36.1295ZM92.0664 36.3104L84.6233 28.8669L83.5626 29.9275L91.0058 37.371L92.0664 36.3104ZM84.5811 28.8278L84.5805 28.8274L83.6042 29.9661L83.6048 29.9666L84.5811 28.8278ZM84.6227 28.8665C81.805 26.0483 80.6902 22.1579 81.2605 18.468L79.7781 18.2389C79.1391 22.3734 80.3867 26.7513 83.562 29.927L84.6227 28.8665ZM40.4042 59.4221L78.6311 21.296L77.5719 20.2339L39.3449 58.3601L40.4042 59.4221ZM39.7215 72.267C36.6733 68.4758 36.9034 62.9137 40.4042 59.4221L39.3449 58.3601C35.2913 62.403 35.033 68.8296 38.5525 73.2069L39.7215 72.267ZM39.7253 72.2717L39.725 72.2714L38.5489 73.2024L38.5492 73.2027L39.7253 72.2717ZM39.7204 72.2656L39.72 72.2652L38.5544 73.2092L38.5547 73.2096L39.7204 72.2656ZM39.7248 72.271L39.7222 72.2679L38.5529 73.2073L38.5554 73.2105L39.7248 72.271ZM40.4454 73.0744C40.1869 72.8167 39.9471 72.5487 39.7255 72.272L38.5547 73.2096C38.811 73.5297 39.0881 73.8392 39.3861 74.1365L40.4454 73.0744ZM78.6311 111.16L40.4454 73.0744L39.3861 74.1365L77.5719 112.222L78.6311 111.16ZM78.8512 111.711C78.9461 108.177 80.3269 104.679 83.0159 101.99L81.9553 100.929C78.9814 103.903 77.4564 107.772 77.3518 111.67L78.8512 111.711ZM83.0159 101.99L90.4614 94.5444L89.4008 93.4837L81.9553 100.929L83.0159 101.99ZM72.4674 77.6556L89.4015 94.5451L90.4607 93.483L73.5267 76.5936L72.4674 77.6556ZM72.4674 54.7998C66.1394 61.1111 66.1394 71.3443 72.4674 77.6556L73.5267 76.5936C67.7863 70.8684 67.7863 61.5871 73.5267 55.8619L72.4674 54.7998ZM89.4015 37.9104L72.4674 54.7998L73.5267 55.8619L90.4607 38.9725L89.4015 37.9104ZM90.4614 37.9111L83.0159 30.4654L81.9553 31.5261L89.4008 38.9718L90.4614 37.9111ZM83.0159 30.4654C80.3269 27.7763 78.9461 24.2786 78.8512 20.7448L77.3518 20.7851C77.4564 24.6832 78.9814 28.5521 81.9553 31.5261L83.0159 30.4654ZM100.463 6.03074C94.4958 3.06625 87.0358 4.03068 82.0553 8.99803L83.1146 10.0601C87.6212 5.56539 94.3812 4.68427 99.7952 7.37408L100.463 6.03074ZM82.0553 8.99802L35.9533 54.9786L37.0125 56.0406L83.1146 10.0601L82.0553 8.99802ZM35.9533 54.9786C30.1355 60.781 29.7929 69.9563 34.8093 76.197L35.9785 75.2572C31.4323 69.6015 31.7486 61.2907 37.0125 56.0406L35.9533 54.9786ZM34.8086 76.196C35.1754 76.6539 35.5707 77.0954 35.9944 77.5179L37.0537 76.4559C36.6695 76.0727 36.3113 75.6727 35.9792 75.2582L34.8086 76.196ZM35.9944 77.5179L82.0553 123.457L83.1146 122.395L37.0537 76.4559L35.9944 77.5179ZM82.0553 123.457C85.1631 126.557 89.2388 128.098 93.3116 128.099L93.3116 126.599C89.6169 126.599 85.9279 125.201 83.1146 122.395L82.0553 123.457ZM99.8017 125.078C97.7707 126.099 95.5431 126.604 93.3134 126.599L93.3098 128.099C95.7679 128.104 98.2282 127.547 100.475 126.419L99.8017 125.078ZM100.473 126.42C101.978 125.67 103.388 124.671 104.639 123.423L103.58 122.361C102.445 123.493 101.167 124.398 99.8042 125.077L100.473 126.42ZM104.639 123.423C104.896 123.168 105.142 122.905 105.378 122.636L104.25 121.647C104.036 121.891 103.813 122.129 103.58 122.361L104.639 123.423ZM131.218 94.6762L104.283 121.611L105.344 122.672L132.278 95.7369L131.218 94.6762ZM147.225 94.6762C142.804 90.2551 135.639 90.2551 131.218 94.6762L132.278 95.7369C136.114 91.9016 142.329 91.9016 146.164 95.7369L147.225 94.6762ZM174.974 122.426L147.225 94.6762L146.164 95.7369L173.913 123.487L174.974 122.426ZM195.358 122.357C189.759 127.956 180.593 128.046 174.974 122.426L173.913 123.487C180.129 129.703 190.245 129.591 196.418 123.418L195.358 122.357ZM195.427 101.99C201.043 107.606 200.953 116.761 195.358 122.357L196.418 123.418C202.589 117.247 202.7 107.142 196.487 100.929L195.427 101.99ZM167.678 74.2404L195.427 101.99L196.487 100.929L168.738 73.1797L167.678 74.2404ZM167.678 58.2152C163.253 62.6397 163.253 69.8158 167.678 74.2404L168.738 73.1797C164.9 69.341 164.9 63.1146 168.738 59.2758L167.678 58.2152ZM195.427 30.4654L167.678 58.2152L168.738 59.2758L196.487 31.5261L195.427 30.4654ZM195.358 10.0986C200.953 15.6941 201.043 24.8494 195.427 30.4654L196.487 31.5261C202.7 25.3134 202.589 15.2083 196.418 9.03791L195.358 10.0986ZM174.974 10.0296C180.593 4.40998 189.759 4.49971 195.358 10.0986L196.418 9.03791C190.245 2.8642 180.129 2.75264 173.913 8.96894L174.974 10.0296ZM147.225 37.7793L174.974 10.0296L173.913 8.96894L146.164 36.7187L147.225 37.7793ZM131.218 37.7793C135.639 42.2004 142.804 42.2004 147.225 37.7793L146.164 36.7187C142.329 40.5539 136.114 40.554 132.278 36.7187L131.218 37.7793ZM104.284 10.8446L131.218 37.7793L132.278 36.7187L105.344 9.78392L104.284 10.8446ZM105.378 9.81981C105.142 9.55086 104.896 9.28809 104.639 9.03205L103.58 10.0941C103.813 10.3265 104.036 10.5649 104.25 10.8087L105.378 9.81981ZM104.639 9.03206C103.386 7.78163 101.972 6.7806 100.463 6.03074L99.7952 7.37408C101.162 8.05306 102.443 8.95976 103.58 10.0941L104.639 9.03206ZM95.453 92.7585L112.372 75.8394L111.311 74.7787L94.3923 91.6979L95.453 92.7585ZM112.346 75.8638L112.347 75.8633L111.337 74.7538L111.337 74.7543L112.346 75.8638ZM112.33 56.5776L112.329 56.5771L111.353 57.7159L111.354 57.7164L112.33 56.5776ZM112.372 56.6162L95.4529 39.697L94.3923 40.7576L111.311 57.6768L112.372 56.6162ZM95.4522 40.7583L95.6329 40.5782L94.5736 39.5161L94.393 39.6963L95.4522 40.7583ZM112.553 56.4363L95.6336 39.5168L94.5729 40.5775L111.492 57.4969L112.553 56.4363ZM112.595 56.4819L112.594 56.4814L111.45 57.4518L111.451 57.4523L112.595 56.4819ZM112.553 76.0187C117.96 70.6112 117.96 61.8444 112.553 56.4368L111.492 57.4974C116.313 62.3192 116.313 70.1364 111.492 74.9581L112.553 76.0187ZM112.58 75.9908L112.58 75.9903L111.465 74.9866L111.465 74.9871L112.58 75.9908ZM95.6336 92.9387L112.553 76.0192L111.492 74.9586L94.5729 91.878L95.6336 92.9387ZM95.6329 91.8773L95.4523 91.6972L94.393 92.7592L94.5736 92.9394L95.6329 91.8773ZM84.6233 103.589L92.0664 96.1451L91.0058 95.0845L83.5626 102.528L84.6233 103.589ZM84.5966 103.614L84.5972 103.613L83.5887 102.503L83.5881 102.504L84.5966 103.614ZM81.2605 113.987C80.6902 110.298 81.805 106.407 84.6227 103.589L83.562 102.528C80.3867 105.704 79.1391 110.082 79.7781 114.217L81.2605 113.987ZM81.3599 113.881L81.0489 113.571L79.9897 114.633L80.3006 114.943L81.3599 113.881ZM81.568 114.277C80.8893 110.568 81.9623 106.61 84.8036 103.769L83.743 102.708C80.533 105.918 79.3303 110.382 80.0925 114.547L81.568 114.277ZM84.8306 103.74L84.8311 103.74L83.7164 102.736L83.7159 102.737L84.8306 103.74ZM84.8041 103.768L92.2471 96.3253L91.1864 95.2646L83.7434 102.708L84.8041 103.768ZM91.0065 96.1459L91.1871 96.326L92.2463 95.2639L92.0657 95.0838L91.0065 96.1459ZM92.7914 96.8654L85.3502 104.307L86.4108 105.367L93.8521 97.9261L92.7914 96.8654ZM85.3502 104.307C81.0379 108.619 81.0818 115.703 85.4191 120.04L86.4798 118.98C82.7185 115.218 82.694 109.084 86.4108 105.367L85.3502 104.307ZM85.4191 120.04C88.79 123.411 93.8111 124.184 97.902 122.342L97.2862 120.974C93.7475 122.567 89.3976 121.897 86.4798 118.98L85.4191 120.04ZM97.902 122.342C99.077 121.813 100.175 121.069 101.135 120.109L100.074 119.049C99.2456 119.877 98.2991 120.518 97.2862 120.974L97.902 122.342ZM101.135 120.109L101.82 119.424L100.759 118.363L100.074 119.049L101.135 120.109ZM100.222 105.338C103.794 108.9 103.96 114.613 100.719 118.406L101.86 119.381C105.601 115.002 105.417 108.4 101.282 104.275L100.222 105.338ZM92.7921 97.9268L100.222 105.338L101.282 104.275L93.8513 96.8647L92.7921 97.9268ZM93.8473 90.0964L76.9183 73.2121L75.8591 74.2742L92.788 91.1585L93.8473 90.0964ZM76.9183 73.2121C73.0506 69.3545 73.0506 63.1009 76.9183 59.2434L75.8591 58.1813C71.4037 62.625 71.4037 69.8305 75.8591 74.2742L76.9183 73.2121ZM76.9183 59.2434L93.8472 42.3591L92.788 41.297L75.8591 58.1813L76.9183 59.2434ZM110.765 58.2152L93.8479 41.2977L92.7873 42.3584L109.704 59.2758L110.765 58.2152ZM110.765 74.2404C115.189 69.8158 115.189 62.6397 110.765 58.2152L109.704 59.2758C113.543 63.1146 113.543 69.341 109.704 73.1797L110.765 74.2404ZM93.848 91.1578L110.765 74.2404L109.704 73.1797L92.7873 90.0971L93.848 91.1578ZM240.212 73.2105L240.214 73.2073L239.045 72.2679L239.042 72.271L240.212 73.2105ZM239.381 74.1365C239.679 73.8392 239.956 73.5297 240.212 73.2096L239.041 72.272C238.82 72.5487 238.58 72.8167 238.322 73.0744L239.381 74.1365ZM193.32 120.076L239.381 74.1365L238.322 73.0744L192.261 119.014L193.32 120.076ZM177.519 120.042C181.88 124.391 188.972 124.412 193.32 120.076L192.261 119.014C188.503 122.762 182.358 122.75 178.579 118.98L177.519 120.042ZM177.485 104.275C173.136 108.613 173.158 115.692 177.519 120.042L178.579 118.98C174.8 115.211 174.788 109.085 178.545 105.338L177.485 104.275ZM205.24 76.5936L177.485 104.275L178.545 105.338L206.3 77.6556L205.24 76.5936ZM205.24 55.8619C210.981 61.5871 210.981 70.8684 205.24 76.5936L206.3 77.6556C212.628 71.3443 212.628 61.1111 206.3 54.7998L205.24 55.8619ZM188.05 38.7173L205.24 55.8619L206.3 54.7998L189.11 37.6552L188.05 38.7173ZM189.11 38.7173L196.259 31.5878L195.199 30.5257L188.05 37.6552L189.11 38.7173ZM196.259 31.5878C199.384 28.4708 200.948 24.3832 200.948 20.2984L199.448 20.2985C199.448 24.0002 198.032 27.7009 195.199 30.5257L196.259 31.5878ZM239.422 58.3601L200.727 19.7674L199.668 20.8295L238.363 59.4221L239.422 58.3601ZM240.214 73.2069C243.734 68.8296 243.476 62.403 239.422 58.3601L238.363 59.4221C241.864 62.9137 242.094 68.4758 239.045 72.267L240.214 73.2069ZM240.223 73.1963L240.223 73.196L239.037 72.2779L239.037 72.2781L240.223 73.1963ZM240.209 73.2141L240.209 73.2137L239.051 72.2607L239.05 72.2611L240.209 73.2141ZM86.1616 105.164L170.719 20.8361L169.66 19.774L85.1024 104.102L86.1616 105.164ZM86.1544 118.837C82.3716 115.065 82.3716 108.943 86.1616 105.164L85.1024 104.102C80.7255 108.467 80.7239 115.54 85.0952 119.899L86.1544 118.837ZM99.8711 118.83C96.08 122.611 89.9383 122.611 86.1544 118.837L85.0952 119.899C89.4653 124.258 96.5545 124.256 100.93 119.892L99.8711 118.83ZM181.268 37.6547L99.8711 118.83L100.93 119.892L182.327 38.7168L181.268 37.6547ZM182.327 37.6547L175.153 30.4994L174.094 31.5615L181.268 38.7168L182.327 37.6547ZM175.153 30.4994C172.333 27.6871 170.933 23.9981 170.939 20.3064L169.439 20.3037C169.432 24.3769 170.978 28.4546 174.094 31.5615L175.153 30.4994ZM185.221 4.35899C181.042 4.29226 176.838 5.85042 173.648 9.03248L174.707 10.0946C177.598 7.21074 181.406 5.79827 185.197 5.8588L185.221 4.35899ZM173.648 9.03248L81.7109 100.719L82.7701 101.781L174.707 10.0946L173.648 9.03248ZM81.7109 100.719C75.4632 106.95 75.4566 117.052 81.7035 123.282L82.7627 122.22C77.1044 116.577 77.1093 107.427 82.7701 101.781L81.7109 100.719ZM81.7035 123.282C87.9492 129.511 98.0753 129.504 104.322 123.274L103.263 122.212C97.6007 127.859 88.4221 127.864 82.7627 122.22L81.7035 123.282ZM104.322 123.274L185.718 42.0993L184.659 41.0372L103.263 122.212L104.322 123.274ZM202.908 58.1813L185.718 41.0372L184.659 42.0992L201.849 59.2434L202.908 58.1813ZM202.908 74.2742C207.363 69.8305 207.363 62.625 202.908 58.1813L201.849 59.2434C205.716 63.1009 205.716 69.3545 201.849 73.2121L202.908 74.2742ZM175.153 101.956L202.908 74.2742L201.849 73.2121L174.094 100.894L175.153 101.956ZM175.187 122.361C169.552 116.741 169.507 107.587 175.153 101.956L174.094 100.894C167.855 107.116 167.91 117.222 174.128 123.423L175.187 122.361ZM195.652 122.395C190.006 128.027 180.824 127.983 175.187 122.361L174.128 123.423C180.344 129.624 190.474 129.679 196.712 123.457L195.652 122.395ZM241.713 76.4559L195.652 122.395L196.712 123.457L242.773 77.5179L241.713 76.4559ZM242.788 75.2582C242.456 75.6727 242.097 76.0727 241.713 76.4559L242.773 77.5179C243.196 77.0954 243.592 76.6539 243.958 76.196L242.788 75.2582ZM241.754 56.0406C247.018 61.2907 247.335 69.6015 242.788 75.2572L243.958 76.197C248.974 69.9563 248.631 60.781 242.814 54.9786L241.754 56.0406ZM195.652 10.0601L241.754 56.0406L242.814 54.9786L196.712 8.99802L195.652 10.0601ZM185.221 5.8588C188.994 5.7986 192.78 7.19498 195.652 10.0601L196.712 8.99802C193.538 5.83297 189.356 4.29264 185.197 4.35899L185.221 5.8588ZM177.485 28.18L184.659 35.3348L185.718 34.2727L178.545 27.118L177.485 28.18ZM177.519 12.4135C173.158 16.7638 173.136 23.8421 177.485 28.18L178.545 27.118C174.788 23.3709 174.8 17.2446 178.579 13.4756L177.519 12.4135ZM185.169 9.14302C182.396 9.21217 179.636 10.3027 177.519 12.4135L178.579 13.4756C180.411 11.6478 182.8 10.7026 185.207 10.6426L185.169 9.14302ZM185.172 10.6426C187.584 10.6941 189.977 11.6367 191.815 13.4697L192.874 12.4076C190.752 10.2907 187.986 9.20236 185.204 9.14296L185.172 10.6426ZM191.815 13.4697C195.598 17.2422 195.598 23.3636 191.808 27.1433L192.867 28.2054C197.244 23.8404 197.246 16.767 192.874 12.4076L191.815 13.4697ZM191.808 27.1433L184.659 34.2727L185.718 35.3348L192.867 28.2054L191.808 27.1433Z" fill="url(#paint3_linear_1_106)" mask="url(#path-2-outside-1_1_106)"/>
<defs>
<linearGradient id="paint0_linear_1_106" x1="-13.5677" y1="-47.8642" x2="251.334" y2="-38.2247" gradientUnits="userSpaceOnUse">
<stop stop-color="#FF003D"/>
<stop offset="1" stop-color="#CC00FF"/>
</linearGradient>
<linearGradient id="paint1_linear_1_106" x1="-13.5677" y1="-47.8642" x2="251.334" y2="-38.2247" gradientUnits="userSpaceOnUse">
<stop stop-color="#FF003D"/>
<stop offset="1" stop-color="#CC00FF"/>
</linearGradient>
<linearGradient id="paint2_linear_1_106" x1="-13.5677" y1="-47.8642" x2="251.334" y2="-38.2247" gradientUnits="userSpaceOnUse">
<stop stop-color="#FF003D"/>
<stop offset="1" stop-color="#CC00FF"/>
</linearGradient>
<linearGradient id="paint3_linear_1_106" x1="-13.5677" y1="-47.8642" x2="251.334" y2="-38.2247" gradientUnits="userSpaceOnUse">
<stop stop-color="#FF003D"/>
<stop offset="1" stop-color="#CC00FF"/>
</linearGradient>
</defs>
</svg>
